<?xml version="1.0" encoding="UTF-8" standalone="no"?>
<svg width="386.997mm" height="91.7222mm"
 xmlns="http://www.w3.org/2000/svg" xmlns:xlink="http://www.w3.org/1999/xlink"  version="1.2" baseProfile="tiny">
<title>Qt SVG Document</title>
<desc>Generated with Qt</desc>
<defs>
</defs>
<g fill="none" stroke="black" stroke-width="1" fill-rule="evenodd" stroke-linecap="square" stroke-linejoin="bevel" >

<g fill="none" stroke="#000000" stroke-opacity="1" stroke-width="1" stroke-linecap="square" stroke-linejoin="bevel" transform="matrix(1,0,0,1,0,0)"
font-family="Ubuntu" font-size="11" font-weight="400" font-style="normal" 
>
</g>

<g fill="none" stroke="#000000" stroke-opacity="1" stroke-width="1" stroke-linecap="square" stroke-linejoin="bevel" transform="matrix(1,0,0,1,0,0)"
font-family="Ubuntu" font-size="11" font-weight="400" font-style="normal" 
>
</g>

<g fill="none" stroke="#000000" stroke-opacity="1" stroke-width="1" stroke-linecap="square" stroke-linejoin="bevel" transform="matrix(1.99938,0,0,1.99938,0.00079975,274.914)"
font-family="Ubuntu" font-size="11" font-weight="400" font-style="normal" 
>
</g>

<g fill="#ffffff" fill-opacity="1" stroke="none" transform="matrix(1.99938,0,0,1.99938,0.00079975,274.914)"
font-family="Ubuntu" font-size="11" font-weight="400" font-style="normal" 
>
<rect x="-0.0004" y="-137.5" width="548.671" height="130"/>
</g>

<g fill="none" stroke="#000000" stroke-opacity="1" stroke-width="1" stroke-linecap="square" stroke-linejoin="bevel" transform="matrix(1.99938,0,0,1.99938,0.00079975,274.914)"
font-family="Ubuntu" font-size="11" font-weight="400" font-style="normal" 
>
</g>

<g fill="none" stroke="#000000" stroke-opacity="1" stroke-width="1" stroke-linecap="square" stroke-linejoin="bevel" transform="matrix(1.99938,0,0,1.99938,0.00079975,274.914)"
font-family="Ubuntu" font-size="11" font-weight="400" font-style="normal" 
>
</g>

<g fill="none" stroke="#000000" stroke-opacity="1" stroke-width="1" stroke-linecap="square" stroke-linejoin="bevel" transform="matrix(1.99938,0,0,1.99938,0.00079975,274.914)"
font-family="Ubuntu" font-size="11" font-weight="400" font-style="normal" 
>
</g>

<g fill="none" stroke="#000000" stroke-opacity="1" stroke-width="1" stroke-linecap="square" stroke-linejoin="bevel" transform="matrix(1.99938,0,0,1.99938,0.00079975,274.914)"
font-family="Ubuntu" font-size="11" font-weight="400" font-style="normal" 
>
</g>

<g fill="none" stroke="#000000" stroke-opacity="1" stroke-width="1" stroke-linecap="square" stroke-linejoin="round" transform="matrix(1.99938,0,0,1.99938,0.00079975,274.914)"
font-family="Ubuntu" font-size="11" font-weight="400" font-style="normal" 
>
<rect x="149.69" y="-137" width="144" height="129"/>
</g>

<g fill="none" stroke="#000000" stroke-opacity="1" stroke-width="1" stroke-linecap="square" stroke-linejoin="bevel" transform="matrix(1.99938,0,0,1.99938,0.00079975,274.914)"
font-family="Ubuntu" font-size="11" font-weight="400" font-style="normal" 
>
</g>

<g fill="none" stroke="#000000" stroke-opacity="1" stroke-width="1" stroke-linecap="square" stroke-linejoin="bevel" transform="matrix(1.99938,0,0,1.99938,402.646,9.99688)"
font-family="Ubuntu" font-size="11" font-weight="400" font-style="normal" 
>
</g>

<g fill="none" stroke="#000000" stroke-opacity="1" stroke-width="1" stroke-linecap="square" stroke-linejoin="bevel" transform="matrix(1.99938,0,0,1.99938,402.646,9.99688)"
font-family="sans" font-size="11" font-weight="100" font-style="normal" 
>
</g>

<g fill="#000000" fill-opacity="1" stroke="#000000" stroke-opacity="1" stroke-width="1" stroke-linecap="square" stroke-linejoin="round" transform="matrix(1.99938,0,0,1.99938,402.646,9.99688)"
font-family="sans" font-size="11" font-weight="100" font-style="normal" 
>
<path vector-effect="none" fill-rule="nonzero" d="M2.96875,2.98438 L3.53125,2.98438 L0.734375,12.0156 L0.171875,12.0156 L2.96875,2.98438 M5.46875,3.28125 L5.46875,4.98438 L7.5,4.98438 L7.5,5.40625 L5.46875,5.40625 L5.46875,9.01563 C5.46875,9.47396 5.52604,9.79688 5.64063,9.98438 C5.89063,10.3802 6.25,10.5781 6.71875,10.5781 L7.5,10.5781 L7.5,11 L6.73438,11 C6.24479,11 5.82813,10.8568 5.48438,10.5703 C5.14063,10.2839 4.96875,9.76563 4.96875,9.01563 L4.96875,5.40625 L4.25,5.40625 L4.25,4.98438 L4.96875,4.98438 L4.96875,3.28125 L5.46875,3.28125 M9.20313,8.60938 L9.20313,4.98438 L9.6875,4.98438 L9.6875,8.57813 C9.6875,9.35938 9.8125,9.90885 10.0625,10.2266 C10.3125,10.5443 10.6823,10.7031 11.1719,10.7031 C11.7448,10.7031 12.2344,10.5313 12.6406,10.1875 C13.0469,9.84375 13.25,9.24479 13.25,8.39063 L13.25,4.98438 L13.7344,4.98438 L13.7344,11 L13.25,11 L13.25,9.875 C13.0729,10.2396 12.8385,10.5156 12.5469,10.7031 C12.1302,10.9948 11.6667,11.1406 11.1563,11.1406 C10.5625,11.1406 10.0885,10.9375 9.73438,10.5313 C9.38021,10.1354 9.20313,9.49479 9.20313,8.60938 M19.5,5.40625 C19.4167,5.36458 19.3073,5.33333 19.1719,5.3125 C19.0469,5.29167 18.8958,5.28125 18.7188,5.28125 C18.1042,5.28125 17.599,5.50521 17.2031,5.95313 C16.8802,6.31771 16.7188,6.94271 16.7188,7.82813 L16.7188,11 L16.2344,11 L16.2344,4.98438 L16.7188,4.98438 L16.7188,6.10938 C16.8854,5.78646 17.1146,5.51563 17.4063,5.29688 C17.8021,4.99479 18.2708,4.84375 18.8125,4.84375 C18.9583,4.84375 19.0833,4.84896 19.1875,4.85938 C19.2917,4.85938 19.3958,4.86979 19.5,4.89063 L19.5,5.40625 M21.2656,3.28125 L21.2656,4.98438 L23.2969,4.98438 L23.2969,5.40625 L21.2656,5.40625 L21.2656,9.01563 C21.2656,9.47396 21.3229,9.79688 21.4375,9.98438 C21.6875,10.3802 22.0469,10.5781 22.5156,10.5781 L23.2969,10.5781 L23.2969,11 L22.5313,11 C22.0417,11 21.625,10.8568 21.2813,10.5703 C20.9375,10.2839 20.7656,9.76563 20.7656,9.01563 L20.7656,5.40625 L20.0469,5.40625 L20.0469,4.98438 L20.7656,4.98438 L20.7656,3.28125 L21.2656,3.28125 M25.0625,2.64063 L25.5469,2.64063 L25.5469,11 L25.0625,11 L25.0625,2.64063 M32.7969,7.75 L32.7969,8.0625 L28.2344,8.0625 C28.2344,9.02083 28.4219,9.69792 28.7969,10.0938 C29.2135,10.5208 29.8281,10.7344 30.6406,10.7344 C30.8594,10.7344 31.1458,10.6875 31.5,10.5938 C31.8542,10.5 32.2083,10.3594 32.5625,10.1719 L32.5625,10.6875 C32.2083,10.8438 31.8464,10.9609 31.4766,11.0391 C31.1068,11.1172 30.8125,11.1563 30.5938,11.1563 C29.6667,11.1563 28.9688,10.9063 28.5,10.4063 C27.9896,9.875 27.7344,9.09375 27.7344,8.0625 C27.7344,6.98958 27.9635,6.1875 28.4219,5.65625 C28.901,5.11458 29.5677,4.84375 30.4219,4.84375 C31.2031,4.84375 31.7969,5.10417 32.2031,5.625 C32.599,6.16667 32.7969,6.875 32.7969,7.75 M32.2969,7.64063 C32.2969,6.79688 32.1042,6.18229 31.7188,5.79688 C31.4063,5.45313 30.974,5.28125 30.4219,5.28125 C29.8281,5.28125 29.3281,5.45833 28.9219,5.8125 C28.5469,6.14583 28.3229,6.75521 28.25,7.64063 L32.2969,7.64063 M35.2656,10.5625 L37.0313,10.5625 L37.0313,3.46875 L34.8281,4.35938 L34.8281,3.85938 L37.0156,2.98438 L37.5625,2.98438 L37.5625,10.5625 L39.3438,10.5625 L39.3438,11 L35.2656,11 L35.2656,10.5625"/>
</g>

<g fill="none" stroke="#000000" stroke-opacity="1" stroke-width="1" stroke-linecap="square" stroke-linejoin="bevel" transform="matrix(1.99938,0,0,1.99938,402.646,9.99688)"
font-family="sans" font-size="11" font-weight="100" font-style="normal" 
>
</g>

<g fill="none" stroke="#000000" stroke-opacity="1" stroke-width="1" stroke-linecap="square" stroke-linejoin="bevel" transform="matrix(1.99938,0,0,1.99938,402.646,9.99688)"
font-family="Ubuntu" font-size="11" font-weight="400" font-style="normal" 
>
</g>

<g fill="none" stroke="#000000" stroke-opacity="1" stroke-width="1" stroke-linecap="square" stroke-linejoin="bevel" transform="matrix(1.99938,0,0,1.99938,0.00079975,274.914)"
font-family="Ubuntu" font-size="11" font-weight="400" font-style="normal" 
>
</g>

<g fill="none" stroke="#000000" stroke-opacity="1" stroke-width="1" stroke-linecap="square" stroke-linejoin="bevel" transform="matrix(1.99938,0,0,1.99938,0.00079975,274.914)"
font-family="Ubuntu" font-size="11" font-weight="400" font-style="normal" 
>
</g>

<g fill="none" stroke="#000000" stroke-opacity="1" stroke-width="1" stroke-linecap="square" stroke-linejoin="bevel" transform="matrix(1.99938,0,0,1.99938,0.00079975,274.914)"
font-family="Ubuntu" font-size="11" font-weight="400" font-style="normal" 
>
</g>

<g fill="none" stroke="#000000" stroke-opacity="1" stroke-width="1" stroke-linecap="square" stroke-linejoin="round" transform="matrix(1.99938,0,0,1.99938,0.00079975,274.914)"
font-family="Ubuntu" font-size="11" font-weight="400" font-style="normal" 
>
<rect x="180.189" y="-51.5" width="83.0024" height="35"/>
</g>

<g fill="none" stroke="#000000" stroke-opacity="1" stroke-width="1" stroke-linecap="square" stroke-linejoin="bevel" transform="matrix(1.99938,0,0,1.99938,0.00079975,274.914)"
font-family="Ubuntu" font-size="11" font-weight="400" font-style="normal" 
>
</g>

<g fill="none" stroke="#000000" stroke-opacity="1" stroke-width="1" stroke-linecap="square" stroke-linejoin="bevel" transform="matrix(1.99938,0,0,1.99938,372.78,192.94)"
font-family="Ubuntu" font-size="11" font-weight="400" font-style="normal" 
>
</g>

<g fill="none" stroke="#000000" stroke-opacity="1" stroke-width="1" stroke-linecap="square" stroke-linejoin="bevel" transform="matrix(1.99938,0,0,1.99938,372.78,192.94)"
font-family="sans" font-size="11" font-weight="100" font-style="normal" 
>
</g>

<g fill="#000000" fill-opacity="1" stroke="#000000" stroke-opacity="1" stroke-width="1" stroke-linecap="square" stroke-linejoin="round" transform="matrix(1.99938,0,0,1.99938,372.78,192.94)"
font-family="sans" font-size="11" font-weight="100" font-style="normal" 
>
<path vector-effect="none" fill-rule="nonzero" d="M2.96875,2.98438 L3.53125,2.98438 L0.734375,12.0156 L0.171875,12.0156 L2.96875,2.98438 M5.46875,3.28125 L5.46875,4.98438 L7.5,4.98438 L7.5,5.40625 L5.46875,5.40625 L5.46875,9.01563 C5.46875,9.47396 5.52604,9.79688 5.64063,9.98438 C5.89063,10.3802 6.25,10.5781 6.71875,10.5781 L7.5,10.5781 L7.5,11 L6.73438,11 C6.24479,11 5.82813,10.8568 5.48438,10.5703 C5.14063,10.2839 4.96875,9.76563 4.96875,9.01563 L4.96875,5.40625 L4.25,5.40625 L4.25,4.98438 L4.96875,4.98438 L4.96875,3.28125 L5.46875,3.28125 M9.20313,8.60938 L9.20313,4.98438 L9.6875,4.98438 L9.6875,8.57813 C9.6875,9.35938 9.8125,9.90885 10.0625,10.2266 C10.3125,10.5443 10.6823,10.7031 11.1719,10.7031 C11.7448,10.7031 12.2344,10.5313 12.6406,10.1875 C13.0469,9.84375 13.25,9.24479 13.25,8.39063 L13.25,4.98438 L13.7344,4.98438 L13.7344,11 L13.25,11 L13.25,9.875 C13.0729,10.2396 12.8385,10.5156 12.5469,10.7031 C12.1302,10.9948 11.6667,11.1406 11.1563,11.1406 C10.5625,11.1406 10.0885,10.9375 9.73438,10.5313 C9.38021,10.1354 9.20313,9.49479 9.20313,8.60938 M19.5,5.40625 C19.4167,5.36458 19.3073,5.33333 19.1719,5.3125 C19.0469,5.29167 18.8958,5.28125 18.7188,5.28125 C18.1042,5.28125 17.599,5.50521 17.2031,5.95313 C16.8802,6.31771 16.7188,6.94271 16.7188,7.82813 L16.7188,11 L16.2344,11 L16.2344,4.98438 L16.7188,4.98438 L16.7188,6.10938 C16.8854,5.78646 17.1146,5.51563 17.4063,5.29688 C17.8021,4.99479 18.2708,4.84375 18.8125,4.84375 C18.9583,4.84375 19.0833,4.84896 19.1875,4.85938 C19.2917,4.85938 19.3958,4.86979 19.5,4.89063 L19.5,5.40625 M21.2656,3.28125 L21.2656,4.98438 L23.2969,4.98438 L23.2969,5.40625 L21.2656,5.40625 L21.2656,9.01563 C21.2656,9.47396 21.3229,9.79688 21.4375,9.98438 C21.6875,10.3802 22.0469,10.5781 22.5156,10.5781 L23.2969,10.5781 L23.2969,11 L22.5313,11 C22.0417,11 21.625,10.8568 21.2813,10.5703 C20.9375,10.2839 20.7656,9.76563 20.7656,9.01563 L20.7656,5.40625 L20.0469,5.40625 L20.0469,4.98438 L20.7656,4.98438 L20.7656,3.28125 L21.2656,3.28125 M25.0625,2.64063 L25.5469,2.64063 L25.5469,11 L25.0625,11 L25.0625,2.64063 M32.7969,7.75 L32.7969,8.0625 L28.2344,8.0625 C28.2344,9.02083 28.4219,9.69792 28.7969,10.0938 C29.2135,10.5208 29.8281,10.7344 30.6406,10.7344 C30.8594,10.7344 31.1458,10.6875 31.5,10.5938 C31.8542,10.5 32.2083,10.3594 32.5625,10.1719 L32.5625,10.6875 C32.2083,10.8438 31.8464,10.9609 31.4766,11.0391 C31.1068,11.1172 30.8125,11.1563 30.5938,11.1563 C29.6667,11.1563 28.9688,10.9063 28.5,10.4063 C27.9896,9.875 27.7344,9.09375 27.7344,8.0625 C27.7344,6.98958 27.9635,6.1875 28.4219,5.65625 C28.901,5.11458 29.5677,4.84375 30.4219,4.84375 C31.2031,4.84375 31.7969,5.10417 32.2031,5.625 C32.599,6.16667 32.7969,6.875 32.7969,7.75 M32.2969,7.64063 C32.2969,6.79688 32.1042,6.18229 31.7188,5.79688 C31.4063,5.45313 30.974,5.28125 30.4219,5.28125 C29.8281,5.28125 29.3281,5.45833 28.9219,5.8125 C28.5469,6.14583 28.3229,6.75521 28.25,7.64063 L32.2969,7.64063 M35.2656,10.5625 L37.0313,10.5625 L37.0313,3.46875 L34.8281,4.35938 L34.8281,3.85938 L37.0156,2.98438 L37.5625,2.98438 L37.5625,10.5625 L39.3438,10.5625 L39.3438,11 L35.2656,11 L35.2656,10.5625 M43.5781,2.98438 L44.1406,2.98438 L41.3438,12.0156 L40.7813,12.0156 L43.5781,2.98438 M46.0469,9.64063 L46.0469,13.2813 L45.5625,13.2813 L45.5625,4.98438 L46.0469,4.98438 L46.0469,6.35938 C46.276,5.83854 46.5208,5.47917 46.7813,5.28125 C47.1875,4.98958 47.5729,4.84375 47.9375,4.84375 C48.6458,4.84375 49.237,5.13281 49.7109,5.71094 C50.1849,6.28906 50.4219,7.05208 50.4219,8 C50.4219,8.94792 50.1849,9.71094 49.7109,10.2891 C49.237,10.8672 48.6458,11.1563 47.9375,11.1563 C47.5729,11.1563 47.1875,11.0052 46.7813,10.7031 C46.5208,10.5156 46.276,10.1615 46.0469,9.64063 M49.2813,10.0938 C49.6979,9.67708 49.9063,8.97917 49.9063,8 C49.9063,7.02083 49.6979,6.32292 49.2813,5.90625 C48.8646,5.48958 48.4271,5.28125 47.9688,5.28125 C47.5208,5.28125 47.0885,5.48958 46.6719,5.90625 C46.2656,6.32292 46.0625,7.02083 46.0625,8 C46.0625,8.97917 46.2656,9.67708 46.6719,10.0938 C47.0885,10.5104 47.5208,10.7188 47.9688,10.7188 C48.4271,10.7188 48.8646,10.5104 49.2813,10.0938 M56.1094,6.01563 C55.7552,5.52604 55.2708,5.28125 54.6563,5.28125 C54.0417,5.28125 53.5573,5.52604 53.2031,6.01563 C52.849,6.49479 52.6719,7.15104 52.6719,7.98438 C52.6719,8.83854 52.849,9.51042 53.2031,10 C53.5573,10.4896 54.0417,10.7344 54.6563,10.7344 C55.2708,10.7344 55.7552,10.4896 56.1094,10 C56.4635,9.5 56.6406,8.82813 56.6406,7.98438 C56.6406,7.16146 56.4635,6.50521 56.1094,6.01563 M54.6563,4.84375 C55.4167,4.84375 56.0208,5.13021 56.4688,5.70313 C56.9167,6.27604 57.1406,7.03646 57.1406,7.98438 C57.1406,8.97396 56.9167,9.75521 56.4688,10.3281 C56.0208,10.901 55.4167,11.1875 54.6563,11.1875 C53.875,11.1875 53.2604,10.901 52.8125,10.3281 C52.375,9.75521 52.1563,8.97396 52.1563,7.98438 C52.1563,7.02604 52.3802,6.26302 52.8281,5.69531 C53.276,5.1276 53.8854,4.84375 54.6563,4.84375 M62.6563,5.15625 L62.6563,5.70313 C62.3021,5.50521 62.0833,5.39583 62,5.375 C61.75,5.32292 61.4375,5.29167 61.0625,5.28125 C60.5,5.28125 60.0573,5.39063 59.7344,5.60938 C59.4844,5.79688 59.3594,6.11458 59.3594,6.5625 C59.3594,6.875 59.4792,7.11458 59.7188,7.28125 C59.9583,7.46875 60.3073,7.61458 60.7656,7.71875 L61.1094,7.78125 C61.6823,7.90625 62.1146,8.08333 62.4063,8.3125 C62.75,8.58333 62.9271,8.92708 62.9375,9.34375 C62.9375,9.90625 62.7708,10.349 62.4375,10.6719 C62.0833,10.9948 61.5052,11.1563 60.7031,11.1563 C60.2656,11.1563 59.9323,11.125 59.7031,11.0625 C59.4219,10.9896 59.1302,10.8958 58.8281,10.7813 L58.8281,10.1563 C59.2656,10.4063 59.5469,10.5521 59.6719,10.5938 C60.026,10.6875 60.3802,10.7344 60.7344,10.7344 C61.3073,10.7344 61.7344,10.6146 62.0156,10.375 C62.2969,10.125 62.4375,9.80729 62.4375,9.42188 C62.4375,9.08854 62.3438,8.84896 62.1563,8.70313 C61.8854,8.48438 61.4583,8.30729 60.875,8.17188 L60.5313,8.09375 C60.0208,7.96875 59.6354,7.80208 59.375,7.59375 C59.0417,7.32292 58.875,6.99479 58.875,6.60938 C58.875,5.98438 59.0755,5.53385 59.4766,5.25781 C59.8776,4.98177 60.3698,4.84375 60.9531,4.84375 C61.4531,4.84375 61.7969,4.86979 61.9844,4.92188 C62.2135,4.98438 62.4375,5.0625 62.6563,5.15625 M69.6563,7.75 L69.6563,8.0625 L65.0938,8.0625 C65.0938,9.02083 65.2813,9.69792 65.6563,10.0938 C66.0729,10.5208 66.6875,10.7344 67.5,10.7344 C67.7188,10.7344 68.0052,10.6875 68.3594,10.5938 C68.7135,10.5 69.0677,10.3594 69.4219,10.1719 L69.4219,10.6875 C69.0677,10.8438 68.7057,10.9609 68.3359,11.0391 C67.9661,11.1172 67.6719,11.1563 67.4531,11.1563 C66.526,11.1563 65.8281,10.9063 65.3594,10.4063 C64.849,9.875 64.5938,9.09375 64.5938,8.0625 C64.5938,6.98958 64.8229,6.1875 65.2813,5.65625 C65.7604,5.11458 66.4271,4.84375 67.2813,4.84375 C68.0625,4.84375 68.6563,5.10417 69.0625,5.625 C69.4583,6.16667 69.6563,6.875 69.6563,7.75 M69.1563,7.64063 C69.1563,6.79688 68.9635,6.18229 68.5781,5.79688 C68.2656,5.45313 67.8333,5.28125 67.2813,5.28125 C66.6875,5.28125 66.1875,5.45833 65.7813,5.8125 C65.4063,6.14583 65.1823,6.75521 65.1094,7.64063 L69.1563,7.64063"/>
</g>

<g fill="none" stroke="#000000" stroke-opacity="1" stroke-width="1" stroke-linecap="square" stroke-linejoin="bevel" transform="matrix(1.99938,0,0,1.99938,372.78,192.94)"
font-family="sans" font-size="11" font-weight="100" font-style="normal" 
>
</g>

<g fill="none" stroke="#000000" stroke-opacity="1" stroke-width="1" stroke-linecap="square" stroke-linejoin="bevel" transform="matrix(1.99938,0,0,1.99938,372.78,192.94)"
font-family="Ubuntu" font-size="11" font-weight="400" font-style="normal" 
>
</g>

<g fill="none" stroke="#000000" stroke-opacity="1" stroke-width="1" stroke-linecap="square" stroke-linejoin="bevel" transform="matrix(1.99938,0,0,1.99938,0.00079975,274.914)"
font-family="Ubuntu" font-size="11" font-weight="400" font-style="normal" 
>
</g>

<g fill="none" stroke="#000000" stroke-opacity="1" stroke-width="1" stroke-linecap="square" stroke-linejoin="bevel" transform="matrix(1.99938,0,0,1.99938,0.00079975,274.914)"
font-family="Ubuntu" font-size="11" font-weight="400" font-style="normal" 
>
</g>

<g fill="none" stroke="#000000" stroke-opacity="1" stroke-width="1" stroke-linecap="square" stroke-linejoin="bevel" transform="matrix(1.99938,0,0,1.99938,0.00079975,274.914)"
font-family="Ubuntu" font-size="11" font-weight="400" font-style="normal" 
>
</g>

<g fill="none" stroke="#000000" stroke-opacity="1" stroke-width="1" stroke-linecap="square" stroke-linejoin="round" transform="matrix(1.99938,0,0,1.99938,0.00079975,274.914)"
font-family="Ubuntu" font-size="11" font-weight="400" font-style="normal" 
>
<rect x="158.189" y="-105.5" width="127.002" height="35"/>
</g>

<g fill="none" stroke="#000000" stroke-opacity="1" stroke-width="1" stroke-linecap="square" stroke-linejoin="bevel" transform="matrix(1.99938,0,0,1.99938,0.00079975,274.914)"
font-family="Ubuntu" font-size="11" font-weight="400" font-style="normal" 
>
</g>

<g fill="none" stroke="#000000" stroke-opacity="1" stroke-width="1" stroke-linecap="square" stroke-linejoin="bevel" transform="matrix(1.99938,0,0,1.99938,330.012,84.9735)"
font-family="Ubuntu" font-size="11" font-weight="400" font-style="normal" 
>
</g>

<g fill="none" stroke="#000000" stroke-opacity="1" stroke-width="1" stroke-linecap="square" stroke-linejoin="bevel" transform="matrix(1.99938,0,0,1.99938,330.012,84.9735)"
font-family="sans" font-size="11" font-weight="100" font-style="normal" 
>
</g>

<g fill="#000000" fill-opacity="1" stroke="#000000" stroke-opacity="1" stroke-width="1" stroke-linecap="square" stroke-linejoin="round" transform="matrix(1.99938,0,0,1.99938,330.012,84.9735)"
font-family="sans" font-size="11" font-weight="100" font-style="normal" 
>
<path vector-effect="none" fill-rule="nonzero" d="M2.96875,2.98438 L3.53125,2.98438 L0.734375,12.0156 L0.171875,12.0156 L2.96875,2.98438 M5.46875,3.28125 L5.46875,4.98438 L7.5,4.98438 L7.5,5.40625 L5.46875,5.40625 L5.46875,9.01563 C5.46875,9.47396 5.52604,9.79688 5.64063,9.98438 C5.89063,10.3802 6.25,10.5781 6.71875,10.5781 L7.5,10.5781 L7.5,11 L6.73438,11 C6.24479,11 5.82813,10.8568 5.48438,10.5703 C5.14063,10.2839 4.96875,9.76563 4.96875,9.01563 L4.96875,5.40625 L4.25,5.40625 L4.25,4.98438 L4.96875,4.98438 L4.96875,3.28125 L5.46875,3.28125 M9.20313,8.60938 L9.20313,4.98438 L9.6875,4.98438 L9.6875,8.57813 C9.6875,9.35938 9.8125,9.90885 10.0625,10.2266 C10.3125,10.5443 10.6823,10.7031 11.1719,10.7031 C11.7448,10.7031 12.2344,10.5313 12.6406,10.1875 C13.0469,9.84375 13.25,9.24479 13.25,8.39063 L13.25,4.98438 L13.7344,4.98438 L13.7344,11 L13.25,11 L13.25,9.875 C13.0729,10.2396 12.8385,10.5156 12.5469,10.7031 C12.1302,10.9948 11.6667,11.1406 11.1563,11.1406 C10.5625,11.1406 10.0885,10.9375 9.73438,10.5313 C9.38021,10.1354 9.20313,9.49479 9.20313,8.60938 M19.5,5.40625 C19.4167,5.36458 19.3073,5.33333 19.1719,5.3125 C19.0469,5.29167 18.8958,5.28125 18.7188,5.28125 C18.1042,5.28125 17.599,5.50521 17.2031,5.95313 C16.8802,6.31771 16.7188,6.94271 16.7188,7.82813 L16.7188,11 L16.2344,11 L16.2344,4.98438 L16.7188,4.98438 L16.7188,6.10938 C16.8854,5.78646 17.1146,5.51563 17.4063,5.29688 C17.8021,4.99479 18.2708,4.84375 18.8125,4.84375 C18.9583,4.84375 19.0833,4.84896 19.1875,4.85938 C19.2917,4.85938 19.3958,4.86979 19.5,4.89063 L19.5,5.40625 M21.2656,3.28125 L21.2656,4.98438 L23.2969,4.98438 L23.2969,5.40625 L21.2656,5.40625 L21.2656,9.01563 C21.2656,9.47396 21.3229,9.79688 21.4375,9.98438 C21.6875,10.3802 22.0469,10.5781 22.5156,10.5781 L23.2969,10.5781 L23.2969,11 L22.5313,11 C22.0417,11 21.625,10.8568 21.2813,10.5703 C20.9375,10.2839 20.7656,9.76563 20.7656,9.01563 L20.7656,5.40625 L20.0469,5.40625 L20.0469,4.98438 L20.7656,4.98438 L20.7656,3.28125 L21.2656,3.28125 M25.0625,2.64063 L25.5469,2.64063 L25.5469,11 L25.0625,11 L25.0625,2.64063 M32.7969,7.75 L32.7969,8.0625 L28.2344,8.0625 C28.2344,9.02083 28.4219,9.69792 28.7969,10.0938 C29.2135,10.5208 29.8281,10.7344 30.6406,10.7344 C30.8594,10.7344 31.1458,10.6875 31.5,10.5938 C31.8542,10.5 32.2083,10.3594 32.5625,10.1719 L32.5625,10.6875 C32.2083,10.8438 31.8464,10.9609 31.4766,11.0391 C31.1068,11.1172 30.8125,11.1563 30.5938,11.1563 C29.6667,11.1563 28.9688,10.9063 28.5,10.4063 C27.9896,9.875 27.7344,9.09375 27.7344,8.0625 C27.7344,6.98958 27.9635,6.1875 28.4219,5.65625 C28.901,5.11458 29.5677,4.84375 30.4219,4.84375 C31.2031,4.84375 31.7969,5.10417 32.2031,5.625 C32.599,6.16667 32.7969,6.875 32.7969,7.75 M32.2969,7.64063 C32.2969,6.79688 32.1042,6.18229 31.7188,5.79688 C31.4063,5.45313 30.974,5.28125 30.4219,5.28125 C29.8281,5.28125 29.3281,5.45833 28.9219,5.8125 C28.5469,6.14583 28.3229,6.75521 28.25,7.64063 L32.2969,7.64063 M35.2656,10.5625 L37.0313,10.5625 L37.0313,3.46875 L34.8281,4.35938 L34.8281,3.85938 L37.0156,2.98438 L37.5625,2.98438 L37.5625,10.5625 L39.3438,10.5625 L39.3438,11 L35.2656,11 L35.2656,10.5625 M43.5781,2.98438 L44.1406,2.98438 L41.3438,12.0156 L40.7813,12.0156 L43.5781,2.98438 M49.6719,5.28125 L49.6719,5.79688 C49.3802,5.61979 49.1354,5.5 48.9375,5.4375 C48.6042,5.33333 48.2865,5.28125 47.9844,5.28125 C47.1198,5.28125 46.5,5.5026 46.125,5.94531 C45.75,6.38802 45.5625,7.07292 45.5625,8 C45.5625,8.9375 45.75,9.6276 46.125,10.0703 C46.5,10.513 47.1198,10.7344 47.9844,10.7344 C48.276,10.7344 48.5573,10.6927 48.8281,10.6094 C49.1198,10.5365 49.401,10.4219 49.6719,10.2656 L49.6719,10.7656 C49.401,10.901 49.1198,11 48.8281,11.0625 C48.526,11.125 48.2292,11.1563 47.9375,11.1563 C47.0625,11.1563 46.3646,10.9167 45.8438,10.4375 C45.3229,9.95833 45.0625,9.14323 45.0625,7.99219 C45.0625,6.84115 45.3229,6.02604 45.8438,5.54688 C46.3646,5.07813 47.0625,4.84375 47.9375,4.84375 C48.2292,4.84375 48.5365,4.88542 48.8594,4.96875 C49.1823,5.04167 49.4531,5.14583 49.6719,5.28125 M55.1875,6.01563 C54.8333,5.52604 54.349,5.28125 53.7344,5.28125 C53.1198,5.28125 52.6354,5.52604 52.2813,6.01563 C51.9271,6.49479 51.75,7.15104 51.75,7.98438 C51.75,8.83854 51.9271,9.51042 52.2813,10 C52.6354,10.4896 53.1198,10.7344 53.7344,10.7344 C54.349,10.7344 54.8333,10.4896 55.1875,10 C55.5417,9.5 55.7188,8.82813 55.7188,7.98438 C55.7188,7.16146 55.5417,6.50521 55.1875,6.01563 M53.7344,4.84375 C54.4948,4.84375 55.099,5.13021 55.5469,5.70313 C55.9948,6.27604 56.2188,7.03646 56.2188,7.98438 C56.2188,8.97396 55.9948,9.75521 55.5469,10.3281 C55.099,10.901 54.4948,11.1875 53.7344,11.1875 C52.9531,11.1875 52.3385,10.901 51.8906,10.3281 C51.4531,9.75521 51.2344,8.97396 51.2344,7.98438 C51.2344,7.02604 51.4583,6.26302 51.9063,5.69531 C52.3542,5.1276 52.9635,4.84375 53.7344,4.84375 M58.3281,2.64063 L58.8125,2.64063 L58.8125,11 L58.3281,11 L58.3281,2.64063 M64.9531,6.01563 C64.599,5.52604 64.1146,5.28125 63.5,5.28125 C62.8854,5.28125 62.401,5.52604 62.0469,6.01563 C61.6927,6.49479 61.5156,7.15104 61.5156,7.98438 C61.5156,8.83854 61.6927,9.51042 62.0469,10 C62.401,10.4896 62.8854,10.7344 63.5,10.7344 C64.1146,10.7344 64.599,10.4896 64.9531,10 C65.3073,9.5 65.4844,8.82813 65.4844,7.98438 C65.4844,7.16146 65.3073,6.50521 64.9531,6.01563 M63.5,4.84375 C64.2604,4.84375 64.8646,5.13021 65.3125,5.70313 C65.7604,6.27604 65.9844,7.03646 65.9844,7.98438 C65.9844,8.97396 65.7604,9.75521 65.3125,10.3281 C64.8646,10.901 64.2604,11.1875 63.5,11.1875 C62.7188,11.1875 62.1042,10.901 61.6563,10.3281 C61.2188,9.75521 61,8.97396 61,7.98438 C61,7.02604 61.224,6.26302 61.6719,5.69531 C62.1198,5.1276 62.7292,4.84375 63.5,4.84375 M71.3594,5.40625 C71.276,5.36458 71.1667,5.33333 71.0313,5.3125 C70.9063,5.29167 70.7552,5.28125 70.5781,5.28125 C69.9635,5.28125 69.4583,5.50521 69.0625,5.95313 C68.7396,6.31771 68.5781,6.94271 68.5781,7.82813 L68.5781,11 L68.0938,11 L68.0938,4.98438 L68.5781,4.98438 L68.5781,6.10938 C68.7448,5.78646 68.974,5.51563 69.2656,5.29688 C69.6615,4.99479 70.1302,4.84375 70.6719,4.84375 C70.8177,4.84375 70.9427,4.84896 71.0469,4.85938 C71.151,4.85938 71.2552,4.86979 71.3594,4.89063 L71.3594,5.40625 M76.9688,13.1719 L76.9688,13.5938 L71.25,13.5938 L71.25,13.1719 L76.9688,13.1719 M81.5156,5.15625 L81.5156,5.70313 C81.1615,5.50521 80.9427,5.39583 80.8594,5.375 C80.6094,5.32292 80.2969,5.29167 79.9219,5.28125 C79.3594,5.28125 78.9167,5.39063 78.5938,5.60938 C78.3438,5.79688 78.2188,6.11458 78.2188,6.5625 C78.2188,6.875 78.3385,7.11458 78.5781,7.28125 C78.8177,7.46875 79.1667,7.61458 79.625,7.71875 L79.9688,7.78125 C80.5417,7.90625 80.974,8.08333 81.2656,8.3125 C81.6094,8.58333 81.7865,8.92708 81.7969,9.34375 C81.7969,9.90625 81.6302,10.349 81.2969,10.6719 C80.9427,10.9948 80.3646,11.1563 79.5625,11.1563 C79.125,11.1563 78.7917,11.125 78.5625,11.0625 C78.2813,10.9896 77.9896,10.8958 77.6875,10.7813 L77.6875,10.1563 C78.125,10.4063 78.4063,10.5521 78.5313,10.5938 C78.8854,10.6875 79.2396,10.7344 79.5938,10.7344 C80.1667,10.7344 80.5938,10.6146 80.875,10.375 C81.1563,10.125 81.2969,9.80729 81.2969,9.42188 C81.2969,9.08854 81.2031,8.84896 81.0156,8.70313 C80.7448,8.48438 80.3177,8.30729 79.7344,8.17188 L79.3906,8.09375 C78.8802,7.96875 78.4948,7.80208 78.2344,7.59375 C77.901,7.32292 77.7344,6.99479 77.7344,6.60938 C77.7344,5.98438 77.9349,5.53385 78.3359,5.25781 C78.737,4.98177 79.2292,4.84375 79.8125,4.84375 C80.3125,4.84375 80.6563,4.86979 80.8438,4.92188 C81.0729,4.98438 81.2969,5.0625 81.5156,5.15625 M88.5156,7.75 L88.5156,8.0625 L83.9531,8.0625 C83.9531,9.02083 84.1406,9.69792 84.5156,10.0938 C84.9323,10.5208 85.5469,10.7344 86.3594,10.7344 C86.5781,10.7344 86.8646,10.6875 87.2188,10.5938 C87.5729,10.5 87.9271,10.3594 88.2813,10.1719 L88.2813,10.6875 C87.9271,10.8438 87.5651,10.9609 87.1953,11.0391 C86.8255,11.1172 86.5313,11.1563 86.3125,11.1563 C85.3854,11.1563 84.6875,10.9063 84.2188,10.4063 C83.7083,9.875 83.4531,9.09375 83.4531,8.0625 C83.4531,6.98958 83.6823,6.1875 84.1406,5.65625 C84.6198,5.11458 85.2865,4.84375 86.1406,4.84375 C86.9219,4.84375 87.5156,5.10417 87.9219,5.625 C88.3177,6.16667 88.5156,6.875 88.5156,7.75 M88.0156,7.64063 C88.0156,6.79688 87.8229,6.18229 87.4375,5.79688 C87.125,5.45313 86.6927,5.28125 86.1406,5.28125 C85.5469,5.28125 85.0469,5.45833 84.6406,5.8125 C84.2656,6.14583 84.0417,6.75521 83.9688,7.64063 L88.0156,7.64063 M95.1406,7.375 L95.1406,11 L94.6406,11 L94.6406,7.40625 C94.6406,6.625 94.5156,6.07552 94.2656,5.75781 C94.0156,5.4401 93.6458,5.28125 93.1563,5.28125 C92.5833,5.28125 92.099,5.45313 91.7031,5.79688 C91.2865,6.14063 91.0781,6.73958 91.0781,7.59375 L91.0781,11 L90.5938,11 L90.5938,4.98438 L91.0781,4.98438 L91.0781,6.10938 C91.2552,5.74479 91.4896,5.46875 91.7813,5.28125 C92.1979,4.98958 92.6615,4.84375 93.1719,4.84375 C93.776,4.84375 94.2552,5.04688 94.6094,5.45313 C94.9635,5.84896 95.1406,6.48958 95.1406,7.375 M100.969,5.15625 L100.969,5.70313 C100.615,5.50521 100.396,5.39583 100.313,5.375 C100.063,5.32292 99.75,5.29167 99.375,5.28125 C98.8125,5.28125 98.3698,5.39063 98.0469,5.60938 C97.7969,5.79688 97.6719,6.11458 97.6719,6.5625 C97.6719,6.875 97.7917,7.11458 98.0313,7.28125 C98.2708,7.46875 98.6198,7.61458 99.0781,7.71875 L99.4219,7.78125 C99.9948,7.90625 100.427,8.08333 100.719,8.3125 C101.063,8.58333 101.24,8.92708 101.25,9.34375 C101.25,9.90625 101.083,10.349 100.75,10.6719 C100.396,10.9948 99.8177,11.1563 99.0156,11.1563 C98.5781,11.1563 98.2448,11.125 98.0156,11.0625 C97.7344,10.9896 97.4427,10.8958 97.1406,10.7813 L97.1406,10.1563 C97.5781,10.4063 97.8594,10.5521 97.9844,10.5938 C98.3385,10.6875 98.6927,10.7344 99.0469,10.7344 C99.6198,10.7344 100.047,10.6146 100.328,10.375 C100.609,10.125 100.75,9.80729 100.75,9.42188 C100.75,9.08854 100.656,8.84896 100.469,8.70313 C100.198,8.48438 99.7708,8.30729 99.1875,8.17188 L98.8438,8.09375 C98.3333,7.96875 97.9479,7.80208 97.6875,7.59375 C97.3542,7.32292 97.1875,6.99479 97.1875,6.60938 C97.1875,5.98438 97.388,5.53385 97.7891,5.25781 C98.1901,4.98177 98.6823,4.84375 99.2656,4.84375 C99.7656,4.84375 100.109,4.86979 100.297,4.92188 C100.526,4.98438 100.75,5.0625 100.969,5.15625 M106.859,6.01563 C106.505,5.52604 106.021,5.28125 105.406,5.28125 C104.792,5.28125 104.307,5.52604 103.953,6.01563 C103.599,6.49479 103.422,7.15104 103.422,7.98438 C103.422,8.83854 103.599,9.51042 103.953,10 C104.307,10.4896 104.792,10.7344 105.406,10.7344 C106.021,10.7344 106.505,10.4896 106.859,10 C107.214,9.5 107.391,8.82813 107.391,7.98438 C107.391,7.16146 107.214,6.50521 106.859,6.01563 M105.406,4.84375 C106.167,4.84375 106.771,5.13021 107.219,5.70313 C107.667,6.27604 107.891,7.03646 107.891,7.98438 C107.891,8.97396 107.667,9.75521 107.219,10.3281 C106.771,10.901 106.167,11.1875 105.406,11.1875 C104.625,11.1875 104.01,10.901 103.563,10.3281 C103.125,9.75521 102.906,8.97396 102.906,7.98438 C102.906,7.02604 103.13,6.26302 103.578,5.69531 C104.026,5.1276 104.635,4.84375 105.406,4.84375 M113.266,5.40625 C113.182,5.36458 113.073,5.33333 112.938,5.3125 C112.813,5.29167 112.661,5.28125 112.484,5.28125 C111.87,5.28125 111.365,5.50521 110.969,5.95313 C110.646,6.31771 110.484,6.94271 110.484,7.82813 L110.484,11 L110,11 L110,4.98438 L110.484,4.98438 L110.484,6.10938 C110.651,5.78646 110.88,5.51563 111.172,5.29688 C111.568,4.99479 112.036,4.84375 112.578,4.84375 C112.724,4.84375 112.849,4.84896 112.953,4.85938 C113.057,4.85938 113.161,4.86979 113.266,4.89063 L113.266,5.40625"/>
</g>

<g fill="none" stroke="#000000" stroke-opacity="1" stroke-width="1" stroke-linecap="square" stroke-linejoin="bevel" transform="matrix(1.99938,0,0,1.99938,330.012,84.9735)"
font-family="sans" font-size="11" font-weight="100" font-style="normal" 
>
</g>

<g fill="none" stroke="#000000" stroke-opacity="1" stroke-width="1" stroke-linecap="square" stroke-linejoin="bevel" transform="matrix(1.99938,0,0,1.99938,330.012,84.9735)"
font-family="Ubuntu" font-size="11" font-weight="400" font-style="normal" 
>
</g>

<g fill="none" stroke="#000000" stroke-opacity="1" stroke-width="1" stroke-linecap="square" stroke-linejoin="bevel" transform="matrix(1.99938,0,0,1.99938,0.00079975,274.914)"
font-family="Ubuntu" font-size="11" font-weight="400" font-style="normal" 
>
</g>

<g fill="none" stroke="#000000" stroke-opacity="1" stroke-width="1" stroke-linecap="square" stroke-linejoin="bevel" transform="matrix(1.99938,0,0,1.99938,0.00079975,274.914)"
font-family="Ubuntu" font-size="11" font-weight="400" font-style="normal" 
>
</g>

<g fill="none" stroke="#000000" stroke-opacity="1" stroke-width="1" stroke-linecap="square" stroke-linejoin="bevel" transform="matrix(1.99938,0,0,1.99938,0.00079975,274.914)"
font-family="Ubuntu" font-size="11" font-weight="400" font-style="normal" 
>
</g>

<g fill="none" stroke="#000000" stroke-opacity="1" stroke-width="1" stroke-linecap="square" stroke-linejoin="round" transform="matrix(1.99938,0,0,1.99938,0.00079975,274.914)"
font-family="Ubuntu" font-size="11" font-weight="400" font-style="normal" 
>
<rect x="180.189" y="-51.5" width="83.0024" height="35"/>
</g>

<g fill="none" stroke="#000000" stroke-opacity="1" stroke-width="1" stroke-linecap="square" stroke-linejoin="bevel" transform="matrix(1.99938,0,0,1.99938,0.00079975,274.914)"
font-family="Ubuntu" font-size="11" font-weight="400" font-style="normal" 
>
</g>

<g fill="none" stroke="#000000" stroke-opacity="1" stroke-width="1" stroke-linecap="square" stroke-linejoin="bevel" transform="matrix(1.99938,0,0,1.99938,372.78,192.94)"
font-family="Ubuntu" font-size="11" font-weight="400" font-style="normal" 
>
</g>

<g fill="none" stroke="#000000" stroke-opacity="1" stroke-width="1" stroke-linecap="square" stroke-linejoin="bevel" transform="matrix(1.99938,0,0,1.99938,372.78,192.94)"
font-family="sans" font-size="11" font-weight="100" font-style="normal" 
>
</g>

<g fill="#000000" fill-opacity="1" stroke="#000000" stroke-opacity="1" stroke-width="1" stroke-linecap="square" stroke-linejoin="round" transform="matrix(1.99938,0,0,1.99938,372.78,192.94)"
font-family="sans" font-size="11" font-weight="100" font-style="normal" 
>
<path vector-effect="none" fill-rule="nonzero" d="M2.96875,2.98438 L3.53125,2.98438 L0.734375,12.0156 L0.171875,12.0156 L2.96875,2.98438 M5.46875,3.28125 L5.46875,4.98438 L7.5,4.98438 L7.5,5.40625 L5.46875,5.40625 L5.46875,9.01563 C5.46875,9.47396 5.52604,9.79688 5.64063,9.98438 C5.89063,10.3802 6.25,10.5781 6.71875,10.5781 L7.5,10.5781 L7.5,11 L6.73438,11 C6.24479,11 5.82813,10.8568 5.48438,10.5703 C5.14063,10.2839 4.96875,9.76563 4.96875,9.01563 L4.96875,5.40625 L4.25,5.40625 L4.25,4.98438 L4.96875,4.98438 L4.96875,3.28125 L5.46875,3.28125 M9.20313,8.60938 L9.20313,4.98438 L9.6875,4.98438 L9.6875,8.57813 C9.6875,9.35938 9.8125,9.90885 10.0625,10.2266 C10.3125,10.5443 10.6823,10.7031 11.1719,10.7031 C11.7448,10.7031 12.2344,10.5313 12.6406,10.1875 C13.0469,9.84375 13.25,9.24479 13.25,8.39063 L13.25,4.98438 L13.7344,4.98438 L13.7344,11 L13.25,11 L13.25,9.875 C13.0729,10.2396 12.8385,10.5156 12.5469,10.7031 C12.1302,10.9948 11.6667,11.1406 11.1563,11.1406 C10.5625,11.1406 10.0885,10.9375 9.73438,10.5313 C9.38021,10.1354 9.20313,9.49479 9.20313,8.60938 M19.5,5.40625 C19.4167,5.36458 19.3073,5.33333 19.1719,5.3125 C19.0469,5.29167 18.8958,5.28125 18.7188,5.28125 C18.1042,5.28125 17.599,5.50521 17.2031,5.95313 C16.8802,6.31771 16.7188,6.94271 16.7188,7.82813 L16.7188,11 L16.2344,11 L16.2344,4.98438 L16.7188,4.98438 L16.7188,6.10938 C16.8854,5.78646 17.1146,5.51563 17.4063,5.29688 C17.8021,4.99479 18.2708,4.84375 18.8125,4.84375 C18.9583,4.84375 19.0833,4.84896 19.1875,4.85938 C19.2917,4.85938 19.3958,4.86979 19.5,4.89063 L19.5,5.40625 M21.2656,3.28125 L21.2656,4.98438 L23.2969,4.98438 L23.2969,5.40625 L21.2656,5.40625 L21.2656,9.01563 C21.2656,9.47396 21.3229,9.79688 21.4375,9.98438 C21.6875,10.3802 22.0469,10.5781 22.5156,10.5781 L23.2969,10.5781 L23.2969,11 L22.5313,11 C22.0417,11 21.625,10.8568 21.2813,10.5703 C20.9375,10.2839 20.7656,9.76563 20.7656,9.01563 L20.7656,5.40625 L20.0469,5.40625 L20.0469,4.98438 L20.7656,4.98438 L20.7656,3.28125 L21.2656,3.28125 M25.0625,2.64063 L25.5469,2.64063 L25.5469,11 L25.0625,11 L25.0625,2.64063 M32.7969,7.75 L32.7969,8.0625 L28.2344,8.0625 C28.2344,9.02083 28.4219,9.69792 28.7969,10.0938 C29.2135,10.5208 29.8281,10.7344 30.6406,10.7344 C30.8594,10.7344 31.1458,10.6875 31.5,10.5938 C31.8542,10.5 32.2083,10.3594 32.5625,10.1719 L32.5625,10.6875 C32.2083,10.8438 31.8464,10.9609 31.4766,11.0391 C31.1068,11.1172 30.8125,11.1563 30.5938,11.1563 C29.6667,11.1563 28.9688,10.9063 28.5,10.4063 C27.9896,9.875 27.7344,9.09375 27.7344,8.0625 C27.7344,6.98958 27.9635,6.1875 28.4219,5.65625 C28.901,5.11458 29.5677,4.84375 30.4219,4.84375 C31.2031,4.84375 31.7969,5.10417 32.2031,5.625 C32.599,6.16667 32.7969,6.875 32.7969,7.75 M32.2969,7.64063 C32.2969,6.79688 32.1042,6.18229 31.7188,5.79688 C31.4063,5.45313 30.974,5.28125 30.4219,5.28125 C29.8281,5.28125 29.3281,5.45833 28.9219,5.8125 C28.5469,6.14583 28.3229,6.75521 28.25,7.64063 L32.2969,7.64063 M35.2656,10.5625 L37.0313,10.5625 L37.0313,3.46875 L34.8281,4.35938 L34.8281,3.85938 L37.0156,2.98438 L37.5625,2.98438 L37.5625,10.5625 L39.3438,10.5625 L39.3438,11 L35.2656,11 L35.2656,10.5625 M43.5781,2.98438 L44.1406,2.98438 L41.3438,12.0156 L40.7813,12.0156 L43.5781,2.98438 M46.0469,9.64063 L46.0469,13.2813 L45.5625,13.2813 L45.5625,4.98438 L46.0469,4.98438 L46.0469,6.35938 C46.276,5.83854 46.5208,5.47917 46.7813,5.28125 C47.1875,4.98958 47.5729,4.84375 47.9375,4.84375 C48.6458,4.84375 49.237,5.13281 49.7109,5.71094 C50.1849,6.28906 50.4219,7.05208 50.4219,8 C50.4219,8.94792 50.1849,9.71094 49.7109,10.2891 C49.237,10.8672 48.6458,11.1563 47.9375,11.1563 C47.5729,11.1563 47.1875,11.0052 46.7813,10.7031 C46.5208,10.5156 46.276,10.1615 46.0469,9.64063 M49.2813,10.0938 C49.6979,9.67708 49.9063,8.97917 49.9063,8 C49.9063,7.02083 49.6979,6.32292 49.2813,5.90625 C48.8646,5.48958 48.4271,5.28125 47.9688,5.28125 C47.5208,5.28125 47.0885,5.48958 46.6719,5.90625 C46.2656,6.32292 46.0625,7.02083 46.0625,8 C46.0625,8.97917 46.2656,9.67708 46.6719,10.0938 C47.0885,10.5104 47.5208,10.7188 47.9688,10.7188 C48.4271,10.7188 48.8646,10.5104 49.2813,10.0938 M56.1094,6.01563 C55.7552,5.52604 55.2708,5.28125 54.6563,5.28125 C54.0417,5.28125 53.5573,5.52604 53.2031,6.01563 C52.849,6.49479 52.6719,7.15104 52.6719,7.98438 C52.6719,8.83854 52.849,9.51042 53.2031,10 C53.5573,10.4896 54.0417,10.7344 54.6563,10.7344 C55.2708,10.7344 55.7552,10.4896 56.1094,10 C56.4635,9.5 56.6406,8.82813 56.6406,7.98438 C56.6406,7.16146 56.4635,6.50521 56.1094,6.01563 M54.6563,4.84375 C55.4167,4.84375 56.0208,5.13021 56.4688,5.70313 C56.9167,6.27604 57.1406,7.03646 57.1406,7.98438 C57.1406,8.97396 56.9167,9.75521 56.4688,10.3281 C56.0208,10.901 55.4167,11.1875 54.6563,11.1875 C53.875,11.1875 53.2604,10.901 52.8125,10.3281 C52.375,9.75521 52.1563,8.97396 52.1563,7.98438 C52.1563,7.02604 52.3802,6.26302 52.8281,5.69531 C53.276,5.1276 53.8854,4.84375 54.6563,4.84375 M62.6563,5.15625 L62.6563,5.70313 C62.3021,5.50521 62.0833,5.39583 62,5.375 C61.75,5.32292 61.4375,5.29167 61.0625,5.28125 C60.5,5.28125 60.0573,5.39063 59.7344,5.60938 C59.4844,5.79688 59.3594,6.11458 59.3594,6.5625 C59.3594,6.875 59.4792,7.11458 59.7188,7.28125 C59.9583,7.46875 60.3073,7.61458 60.7656,7.71875 L61.1094,7.78125 C61.6823,7.90625 62.1146,8.08333 62.4063,8.3125 C62.75,8.58333 62.9271,8.92708 62.9375,9.34375 C62.9375,9.90625 62.7708,10.349 62.4375,10.6719 C62.0833,10.9948 61.5052,11.1563 60.7031,11.1563 C60.2656,11.1563 59.9323,11.125 59.7031,11.0625 C59.4219,10.9896 59.1302,10.8958 58.8281,10.7813 L58.8281,10.1563 C59.2656,10.4063 59.5469,10.5521 59.6719,10.5938 C60.026,10.6875 60.3802,10.7344 60.7344,10.7344 C61.3073,10.7344 61.7344,10.6146 62.0156,10.375 C62.2969,10.125 62.4375,9.80729 62.4375,9.42188 C62.4375,9.08854 62.3438,8.84896 62.1563,8.70313 C61.8854,8.48438 61.4583,8.30729 60.875,8.17188 L60.5313,8.09375 C60.0208,7.96875 59.6354,7.80208 59.375,7.59375 C59.0417,7.32292 58.875,6.99479 58.875,6.60938 C58.875,5.98438 59.0755,5.53385 59.4766,5.25781 C59.8776,4.98177 60.3698,4.84375 60.9531,4.84375 C61.4531,4.84375 61.7969,4.86979 61.9844,4.92188 C62.2135,4.98438 62.4375,5.0625 62.6563,5.15625 M69.6563,7.75 L69.6563,8.0625 L65.0938,8.0625 C65.0938,9.02083 65.2813,9.69792 65.6563,10.0938 C66.0729,10.5208 66.6875,10.7344 67.5,10.7344 C67.7188,10.7344 68.0052,10.6875 68.3594,10.5938 C68.7135,10.5 69.0677,10.3594 69.4219,10.1719 L69.4219,10.6875 C69.0677,10.8438 68.7057,10.9609 68.3359,11.0391 C67.9661,11.1172 67.6719,11.1563 67.4531,11.1563 C66.526,11.1563 65.8281,10.9063 65.3594,10.4063 C64.849,9.875 64.5938,9.09375 64.5938,8.0625 C64.5938,6.98958 64.8229,6.1875 65.2813,5.65625 C65.7604,5.11458 66.4271,4.84375 67.2813,4.84375 C68.0625,4.84375 68.6563,5.10417 69.0625,5.625 C69.4583,6.16667 69.6563,6.875 69.6563,7.75 M69.1563,7.64063 C69.1563,6.79688 68.9635,6.18229 68.5781,5.79688 C68.2656,5.45313 67.8333,5.28125 67.2813,5.28125 C66.6875,5.28125 66.1875,5.45833 65.7813,5.8125 C65.4063,6.14583 65.1823,6.75521 65.1094,7.64063 L69.1563,7.64063"/>
</g>

<g fill="none" stroke="#000000" stroke-opacity="1" stroke-width="1" stroke-linecap="square" stroke-linejoin="bevel" transform="matrix(1.99938,0,0,1.99938,372.78,192.94)"
font-family="sans" font-size="11" font-weight="100" font-style="normal" 
>
</g>

<g fill="none" stroke="#000000" stroke-opacity="1" stroke-width="1" stroke-linecap="square" stroke-linejoin="bevel" transform="matrix(1.99938,0,0,1.99938,372.78,192.94)"
font-family="Ubuntu" font-size="11" font-weight="400" font-style="normal" 
>
</g>

<g fill="none" stroke="#000000" stroke-opacity="1" stroke-width="1" stroke-linecap="square" stroke-linejoin="bevel" transform="matrix(1.99938,0,0,1.99938,0.00079975,274.914)"
font-family="Ubuntu" font-size="11" font-weight="400" font-style="normal" 
>
</g>

<g fill="none" stroke="#000000" stroke-opacity="1" stroke-width="1" stroke-linecap="square" stroke-linejoin="bevel" transform="matrix(1.99938,0,0,1.99938,0.00079975,274.914)"
font-family="Ubuntu" font-size="11" font-weight="400" font-style="normal" 
>
</g>

<g fill="none" stroke="#000000" stroke-opacity="1" stroke-width="1" stroke-linecap="square" stroke-linejoin="bevel" transform="matrix(1.99938,0,0,1.99938,0.00079975,274.914)"
font-family="Ubuntu" font-size="11" font-weight="400" font-style="normal" 
>
</g>

<g fill="none" stroke="#000000" stroke-opacity="1" stroke-width="1" stroke-linecap="square" stroke-linejoin="round" transform="matrix(1.99938,0,0,1.99938,0.00079975,274.914)"
font-family="Ubuntu" font-size="11" font-weight="400" font-style="normal" 
>
<rect x="158.189" y="-105.5" width="127.002" height="35"/>
</g>

<g fill="none" stroke="#000000" stroke-opacity="1" stroke-width="1" stroke-linecap="square" stroke-linejoin="bevel" transform="matrix(1.99938,0,0,1.99938,0.00079975,274.914)"
font-family="Ubuntu" font-size="11" font-weight="400" font-style="normal" 
>
</g>

<g fill="none" stroke="#000000" stroke-opacity="1" stroke-width="1" stroke-linecap="square" stroke-linejoin="bevel" transform="matrix(1.99938,0,0,1.99938,330.012,84.9735)"
font-family="Ubuntu" font-size="11" font-weight="400" font-style="normal" 
>
</g>

<g fill="none" stroke="#000000" stroke-opacity="1" stroke-width="1" stroke-linecap="square" stroke-linejoin="bevel" transform="matrix(1.99938,0,0,1.99938,330.012,84.9735)"
font-family="sans" font-size="11" font-weight="100" font-style="normal" 
>
</g>

<g fill="#000000" fill-opacity="1" stroke="#000000" stroke-opacity="1" stroke-width="1" stroke-linecap="square" stroke-linejoin="round" transform="matrix(1.99938,0,0,1.99938,330.012,84.9735)"
font-family="sans" font-size="11" font-weight="100" font-style="normal" 
>
<path vector-effect="none" fill-rule="nonzero" d="M2.96875,2.98438 L3.53125,2.98438 L0.734375,12.0156 L0.171875,12.0156 L2.96875,2.98438 M5.46875,3.28125 L5.46875,4.98438 L7.5,4.98438 L7.5,5.40625 L5.46875,5.40625 L5.46875,9.01563 C5.46875,9.47396 5.52604,9.79688 5.64063,9.98438 C5.89063,10.3802 6.25,10.5781 6.71875,10.5781 L7.5,10.5781 L7.5,11 L6.73438,11 C6.24479,11 5.82813,10.8568 5.48438,10.5703 C5.14063,10.2839 4.96875,9.76563 4.96875,9.01563 L4.96875,5.40625 L4.25,5.40625 L4.25,4.98438 L4.96875,4.98438 L4.96875,3.28125 L5.46875,3.28125 M9.20313,8.60938 L9.20313,4.98438 L9.6875,4.98438 L9.6875,8.57813 C9.6875,9.35938 9.8125,9.90885 10.0625,10.2266 C10.3125,10.5443 10.6823,10.7031 11.1719,10.7031 C11.7448,10.7031 12.2344,10.5313 12.6406,10.1875 C13.0469,9.84375 13.25,9.24479 13.25,8.39063 L13.25,4.98438 L13.7344,4.98438 L13.7344,11 L13.25,11 L13.25,9.875 C13.0729,10.2396 12.8385,10.5156 12.5469,10.7031 C12.1302,10.9948 11.6667,11.1406 11.1563,11.1406 C10.5625,11.1406 10.0885,10.9375 9.73438,10.5313 C9.38021,10.1354 9.20313,9.49479 9.20313,8.60938 M19.5,5.40625 C19.4167,5.36458 19.3073,5.33333 19.1719,5.3125 C19.0469,5.29167 18.8958,5.28125 18.7188,5.28125 C18.1042,5.28125 17.599,5.50521 17.2031,5.95313 C16.8802,6.31771 16.7188,6.94271 16.7188,7.82813 L16.7188,11 L16.2344,11 L16.2344,4.98438 L16.7188,4.98438 L16.7188,6.10938 C16.8854,5.78646 17.1146,5.51563 17.4063,5.29688 C17.8021,4.99479 18.2708,4.84375 18.8125,4.84375 C18.9583,4.84375 19.0833,4.84896 19.1875,4.85938 C19.2917,4.85938 19.3958,4.86979 19.5,4.89063 L19.5,5.40625 M21.2656,3.28125 L21.2656,4.98438 L23.2969,4.98438 L23.2969,5.40625 L21.2656,5.40625 L21.2656,9.01563 C21.2656,9.47396 21.3229,9.79688 21.4375,9.98438 C21.6875,10.3802 22.0469,10.5781 22.5156,10.5781 L23.2969,10.5781 L23.2969,11 L22.5313,11 C22.0417,11 21.625,10.8568 21.2813,10.5703 C20.9375,10.2839 20.7656,9.76563 20.7656,9.01563 L20.7656,5.40625 L20.0469,5.40625 L20.0469,4.98438 L20.7656,4.98438 L20.7656,3.28125 L21.2656,3.28125 M25.0625,2.64063 L25.5469,2.64063 L25.5469,11 L25.0625,11 L25.0625,2.64063 M32.7969,7.75 L32.7969,8.0625 L28.2344,8.0625 C28.2344,9.02083 28.4219,9.69792 28.7969,10.0938 C29.2135,10.5208 29.8281,10.7344 30.6406,10.7344 C30.8594,10.7344 31.1458,10.6875 31.5,10.5938 C31.8542,10.5 32.2083,10.3594 32.5625,10.1719 L32.5625,10.6875 C32.2083,10.8438 31.8464,10.9609 31.4766,11.0391 C31.1068,11.1172 30.8125,11.1563 30.5938,11.1563 C29.6667,11.1563 28.9688,10.9063 28.5,10.4063 C27.9896,9.875 27.7344,9.09375 27.7344,8.0625 C27.7344,6.98958 27.9635,6.1875 28.4219,5.65625 C28.901,5.11458 29.5677,4.84375 30.4219,4.84375 C31.2031,4.84375 31.7969,5.10417 32.2031,5.625 C32.599,6.16667 32.7969,6.875 32.7969,7.75 M32.2969,7.64063 C32.2969,6.79688 32.1042,6.18229 31.7188,5.79688 C31.4063,5.45313 30.974,5.28125 30.4219,5.28125 C29.8281,5.28125 29.3281,5.45833 28.9219,5.8125 C28.5469,6.14583 28.3229,6.75521 28.25,7.64063 L32.2969,7.64063 M35.2656,10.5625 L37.0313,10.5625 L37.0313,3.46875 L34.8281,4.35938 L34.8281,3.85938 L37.0156,2.98438 L37.5625,2.98438 L37.5625,10.5625 L39.3438,10.5625 L39.3438,11 L35.2656,11 L35.2656,10.5625 M43.5781,2.98438 L44.1406,2.98438 L41.3438,12.0156 L40.7813,12.0156 L43.5781,2.98438 M49.6719,5.28125 L49.6719,5.79688 C49.3802,5.61979 49.1354,5.5 48.9375,5.4375 C48.6042,5.33333 48.2865,5.28125 47.9844,5.28125 C47.1198,5.28125 46.5,5.5026 46.125,5.94531 C45.75,6.38802 45.5625,7.07292 45.5625,8 C45.5625,8.9375 45.75,9.6276 46.125,10.0703 C46.5,10.513 47.1198,10.7344 47.9844,10.7344 C48.276,10.7344 48.5573,10.6927 48.8281,10.6094 C49.1198,10.5365 49.401,10.4219 49.6719,10.2656 L49.6719,10.7656 C49.401,10.901 49.1198,11 48.8281,11.0625 C48.526,11.125 48.2292,11.1563 47.9375,11.1563 C47.0625,11.1563 46.3646,10.9167 45.8438,10.4375 C45.3229,9.95833 45.0625,9.14323 45.0625,7.99219 C45.0625,6.84115 45.3229,6.02604 45.8438,5.54688 C46.3646,5.07813 47.0625,4.84375 47.9375,4.84375 C48.2292,4.84375 48.5365,4.88542 48.8594,4.96875 C49.1823,5.04167 49.4531,5.14583 49.6719,5.28125 M55.1875,6.01563 C54.8333,5.52604 54.349,5.28125 53.7344,5.28125 C53.1198,5.28125 52.6354,5.52604 52.2813,6.01563 C51.9271,6.49479 51.75,7.15104 51.75,7.98438 C51.75,8.83854 51.9271,9.51042 52.2813,10 C52.6354,10.4896 53.1198,10.7344 53.7344,10.7344 C54.349,10.7344 54.8333,10.4896 55.1875,10 C55.5417,9.5 55.7188,8.82813 55.7188,7.98438 C55.7188,7.16146 55.5417,6.50521 55.1875,6.01563 M53.7344,4.84375 C54.4948,4.84375 55.099,5.13021 55.5469,5.70313 C55.9948,6.27604 56.2188,7.03646 56.2188,7.98438 C56.2188,8.97396 55.9948,9.75521 55.5469,10.3281 C55.099,10.901 54.4948,11.1875 53.7344,11.1875 C52.9531,11.1875 52.3385,10.901 51.8906,10.3281 C51.4531,9.75521 51.2344,8.97396 51.2344,7.98438 C51.2344,7.02604 51.4583,6.26302 51.9063,5.69531 C52.3542,5.1276 52.9635,4.84375 53.7344,4.84375 M58.3281,2.64063 L58.8125,2.64063 L58.8125,11 L58.3281,11 L58.3281,2.64063 M64.9531,6.01563 C64.599,5.52604 64.1146,5.28125 63.5,5.28125 C62.8854,5.28125 62.401,5.52604 62.0469,6.01563 C61.6927,6.49479 61.5156,7.15104 61.5156,7.98438 C61.5156,8.83854 61.6927,9.51042 62.0469,10 C62.401,10.4896 62.8854,10.7344 63.5,10.7344 C64.1146,10.7344 64.599,10.4896 64.9531,10 C65.3073,9.5 65.4844,8.82813 65.4844,7.98438 C65.4844,7.16146 65.3073,6.50521 64.9531,6.01563 M63.5,4.84375 C64.2604,4.84375 64.8646,5.13021 65.3125,5.70313 C65.7604,6.27604 65.9844,7.03646 65.9844,7.98438 C65.9844,8.97396 65.7604,9.75521 65.3125,10.3281 C64.8646,10.901 64.2604,11.1875 63.5,11.1875 C62.7188,11.1875 62.1042,10.901 61.6563,10.3281 C61.2188,9.75521 61,8.97396 61,7.98438 C61,7.02604 61.224,6.26302 61.6719,5.69531 C62.1198,5.1276 62.7292,4.84375 63.5,4.84375 M71.3594,5.40625 C71.276,5.36458 71.1667,5.33333 71.0313,5.3125 C70.9063,5.29167 70.7552,5.28125 70.5781,5.28125 C69.9635,5.28125 69.4583,5.50521 69.0625,5.95313 C68.7396,6.31771 68.5781,6.94271 68.5781,7.82813 L68.5781,11 L68.0938,11 L68.0938,4.98438 L68.5781,4.98438 L68.5781,6.10938 C68.7448,5.78646 68.974,5.51563 69.2656,5.29688 C69.6615,4.99479 70.1302,4.84375 70.6719,4.84375 C70.8177,4.84375 70.9427,4.84896 71.0469,4.85938 C71.151,4.85938 71.2552,4.86979 71.3594,4.89063 L71.3594,5.40625 M76.9688,13.1719 L76.9688,13.5938 L71.25,13.5938 L71.25,13.1719 L76.9688,13.1719 M81.5156,5.15625 L81.5156,5.70313 C81.1615,5.50521 80.9427,5.39583 80.8594,5.375 C80.6094,5.32292 80.2969,5.29167 79.9219,5.28125 C79.3594,5.28125 78.9167,5.39063 78.5938,5.60938 C78.3438,5.79688 78.2188,6.11458 78.2188,6.5625 C78.2188,6.875 78.3385,7.11458 78.5781,7.28125 C78.8177,7.46875 79.1667,7.61458 79.625,7.71875 L79.9688,7.78125 C80.5417,7.90625 80.974,8.08333 81.2656,8.3125 C81.6094,8.58333 81.7865,8.92708 81.7969,9.34375 C81.7969,9.90625 81.6302,10.349 81.2969,10.6719 C80.9427,10.9948 80.3646,11.1563 79.5625,11.1563 C79.125,11.1563 78.7917,11.125 78.5625,11.0625 C78.2813,10.9896 77.9896,10.8958 77.6875,10.7813 L77.6875,10.1563 C78.125,10.4063 78.4063,10.5521 78.5313,10.5938 C78.8854,10.6875 79.2396,10.7344 79.5938,10.7344 C80.1667,10.7344 80.5938,10.6146 80.875,10.375 C81.1563,10.125 81.2969,9.80729 81.2969,9.42188 C81.2969,9.08854 81.2031,8.84896 81.0156,8.70313 C80.7448,8.48438 80.3177,8.30729 79.7344,8.17188 L79.3906,8.09375 C78.8802,7.96875 78.4948,7.80208 78.2344,7.59375 C77.901,7.32292 77.7344,6.99479 77.7344,6.60938 C77.7344,5.98438 77.9349,5.53385 78.3359,5.25781 C78.737,4.98177 79.2292,4.84375 79.8125,4.84375 C80.3125,4.84375 80.6563,4.86979 80.8438,4.92188 C81.0729,4.98438 81.2969,5.0625 81.5156,5.15625 M88.5156,7.75 L88.5156,8.0625 L83.9531,8.0625 C83.9531,9.02083 84.1406,9.69792 84.5156,10.0938 C84.9323,10.5208 85.5469,10.7344 86.3594,10.7344 C86.5781,10.7344 86.8646,10.6875 87.2188,10.5938 C87.5729,10.5 87.9271,10.3594 88.2813,10.1719 L88.2813,10.6875 C87.9271,10.8438 87.5651,10.9609 87.1953,11.0391 C86.8255,11.1172 86.5313,11.1563 86.3125,11.1563 C85.3854,11.1563 84.6875,10.9063 84.2188,10.4063 C83.7083,9.875 83.4531,9.09375 83.4531,8.0625 C83.4531,6.98958 83.6823,6.1875 84.1406,5.65625 C84.6198,5.11458 85.2865,4.84375 86.1406,4.84375 C86.9219,4.84375 87.5156,5.10417 87.9219,5.625 C88.3177,6.16667 88.5156,6.875 88.5156,7.75 M88.0156,7.64063 C88.0156,6.79688 87.8229,6.18229 87.4375,5.79688 C87.125,5.45313 86.6927,5.28125 86.1406,5.28125 C85.5469,5.28125 85.0469,5.45833 84.6406,5.8125 C84.2656,6.14583 84.0417,6.75521 83.9688,7.64063 L88.0156,7.64063 M95.1406,7.375 L95.1406,11 L94.6406,11 L94.6406,7.40625 C94.6406,6.625 94.5156,6.07552 94.2656,5.75781 C94.0156,5.4401 93.6458,5.28125 93.1563,5.28125 C92.5833,5.28125 92.099,5.45313 91.7031,5.79688 C91.2865,6.14063 91.0781,6.73958 91.0781,7.59375 L91.0781,11 L90.5938,11 L90.5938,4.98438 L91.0781,4.98438 L91.0781,6.10938 C91.2552,5.74479 91.4896,5.46875 91.7813,5.28125 C92.1979,4.98958 92.6615,4.84375 93.1719,4.84375 C93.776,4.84375 94.2552,5.04688 94.6094,5.45313 C94.9635,5.84896 95.1406,6.48958 95.1406,7.375 M100.969,5.15625 L100.969,5.70313 C100.615,5.50521 100.396,5.39583 100.313,5.375 C100.063,5.32292 99.75,5.29167 99.375,5.28125 C98.8125,5.28125 98.3698,5.39063 98.0469,5.60938 C97.7969,5.79688 97.6719,6.11458 97.6719,6.5625 C97.6719,6.875 97.7917,7.11458 98.0313,7.28125 C98.2708,7.46875 98.6198,7.61458 99.0781,7.71875 L99.4219,7.78125 C99.9948,7.90625 100.427,8.08333 100.719,8.3125 C101.063,8.58333 101.24,8.92708 101.25,9.34375 C101.25,9.90625 101.083,10.349 100.75,10.6719 C100.396,10.9948 99.8177,11.1563 99.0156,11.1563 C98.5781,11.1563 98.2448,11.125 98.0156,11.0625 C97.7344,10.9896 97.4427,10.8958 97.1406,10.7813 L97.1406,10.1563 C97.5781,10.4063 97.8594,10.5521 97.9844,10.5938 C98.3385,10.6875 98.6927,10.7344 99.0469,10.7344 C99.6198,10.7344 100.047,10.6146 100.328,10.375 C100.609,10.125 100.75,9.80729 100.75,9.42188 C100.75,9.08854 100.656,8.84896 100.469,8.70313 C100.198,8.48438 99.7708,8.30729 99.1875,8.17188 L98.8438,8.09375 C98.3333,7.96875 97.9479,7.80208 97.6875,7.59375 C97.3542,7.32292 97.1875,6.99479 97.1875,6.60938 C97.1875,5.98438 97.388,5.53385 97.7891,5.25781 C98.1901,4.98177 98.6823,4.84375 99.2656,4.84375 C99.7656,4.84375 100.109,4.86979 100.297,4.92188 C100.526,4.98438 100.75,5.0625 100.969,5.15625 M106.859,6.01563 C106.505,5.52604 106.021,5.28125 105.406,5.28125 C104.792,5.28125 104.307,5.52604 103.953,6.01563 C103.599,6.49479 103.422,7.15104 103.422,7.98438 C103.422,8.83854 103.599,9.51042 103.953,10 C104.307,10.4896 104.792,10.7344 105.406,10.7344 C106.021,10.7344 106.505,10.4896 106.859,10 C107.214,9.5 107.391,8.82813 107.391,7.98438 C107.391,7.16146 107.214,6.50521 106.859,6.01563 M105.406,4.84375 C106.167,4.84375 106.771,5.13021 107.219,5.70313 C107.667,6.27604 107.891,7.03646 107.891,7.98438 C107.891,8.97396 107.667,9.75521 107.219,10.3281 C106.771,10.901 106.167,11.1875 105.406,11.1875 C104.625,11.1875 104.01,10.901 103.563,10.3281 C103.125,9.75521 102.906,8.97396 102.906,7.98438 C102.906,7.02604 103.13,6.26302 103.578,5.69531 C104.026,5.1276 104.635,4.84375 105.406,4.84375 M113.266,5.40625 C113.182,5.36458 113.073,5.33333 112.938,5.3125 C112.813,5.29167 112.661,5.28125 112.484,5.28125 C111.87,5.28125 111.365,5.50521 110.969,5.95313 C110.646,6.31771 110.484,6.94271 110.484,7.82813 L110.484,11 L110,11 L110,4.98438 L110.484,4.98438 L110.484,6.10938 C110.651,5.78646 110.88,5.51563 111.172,5.29688 C111.568,4.99479 112.036,4.84375 112.578,4.84375 C112.724,4.84375 112.849,4.84896 112.953,4.85938 C113.057,4.85938 113.161,4.86979 113.266,4.89063 L113.266,5.40625"/>
</g>

<g fill="none" stroke="#000000" stroke-opacity="1" stroke-width="1" stroke-linecap="square" stroke-linejoin="bevel" transform="matrix(1.99938,0,0,1.99938,330.012,84.9735)"
font-family="sans" font-size="11" font-weight="100" font-style="normal" 
>
</g>

<g fill="none" stroke="#000000" stroke-opacity="1" stroke-width="1" stroke-linecap="square" stroke-linejoin="bevel" transform="matrix(1.99938,0,0,1.99938,330.012,84.9735)"
font-family="Ubuntu" font-size="11" font-weight="400" font-style="normal" 
>
</g>

<g fill="none" stroke="#000000" stroke-opacity="1" stroke-width="1" stroke-linecap="square" stroke-linejoin="bevel" transform="matrix(1.99938,0,0,1.99938,0.00079975,274.914)"
font-family="Ubuntu" font-size="11" font-weight="400" font-style="normal" 
>
</g>

<g fill="none" stroke="#000000" stroke-opacity="1" stroke-width="1" stroke-linecap="square" stroke-linejoin="bevel" transform="matrix(1.99938,0,0,1.99938,0.00079975,274.914)"
font-family="Ubuntu" font-size="11" font-weight="400" font-style="normal" 
>
</g>

<g fill="none" stroke="#000000" stroke-opacity="1" stroke-width="1" stroke-linecap="square" stroke-linejoin="bevel" transform="matrix(1.99938,0,0,1.99938,0.00079975,274.914)"
font-family="Ubuntu" font-size="11" font-weight="400" font-style="normal" 
>
</g>

<g fill="none" stroke="#000000" stroke-opacity="1" stroke-width="1" stroke-linecap="square" stroke-linejoin="round" transform="matrix(1.99938,0,0,1.99938,0.00079975,274.914)"
font-family="Ubuntu" font-size="11" font-weight="400" font-style="normal" 
>
<ellipse cx="425.18" cy="-61" rx="122.991" ry="17.5"/>
</g>

<g fill="none" stroke="#000000" stroke-opacity="1" stroke-width="1" stroke-linecap="square" stroke-linejoin="bevel" transform="matrix(1.99938,0,0,1.99938,0.00079975,274.914)"
font-family="Ubuntu" font-size="11" font-weight="400" font-style="normal" 
>
</g>

<g fill="none" stroke="#000000" stroke-opacity="1" stroke-width="1" stroke-linecap="square" stroke-linejoin="bevel" transform="matrix(1.99938,0,0,1.99938,672.713,138.957)"
font-family="Ubuntu" font-size="11" font-weight="400" font-style="normal" 
>
</g>

<g fill="none" stroke="#000000" stroke-opacity="1" stroke-width="1" stroke-linecap="square" stroke-linejoin="bevel" transform="matrix(1.99938,0,0,1.99938,672.713,138.957)"
font-family="sans" font-size="11" font-weight="100" font-style="normal" 
>
</g>

<g fill="#000000" fill-opacity="1" stroke="#000000" stroke-opacity="1" stroke-width="1" stroke-linecap="square" stroke-linejoin="round" transform="matrix(1.99938,0,0,1.99938,672.713,138.957)"
font-family="sans" font-size="11" font-weight="100" font-style="normal" 
>
<path vector-effect="none" fill-rule="nonzero" d="M2.96875,2.98438 L3.53125,2.98438 L0.734375,12.0156 L0.171875,12.0156 L2.96875,2.98438 M8.21875,5.40625 C8.13542,5.36458 8.02604,5.33333 7.89063,5.3125 C7.76563,5.29167 7.61458,5.28125 7.4375,5.28125 C6.82292,5.28125 6.31771,5.50521 5.92188,5.95313 C5.59896,6.31771 5.4375,6.94271 5.4375,7.82813 L5.4375,11 L4.95313,11 L4.95313,4.98438 L5.4375,4.98438 L5.4375,6.10938 C5.60417,5.78646 5.83333,5.51563 6.125,5.29688 C6.52083,4.99479 6.98958,4.84375 7.53125,4.84375 C7.67708,4.84375 7.80208,4.84896 7.90625,4.85938 C8.01042,4.85938 8.11458,4.86979 8.21875,4.89063 L8.21875,5.40625 M14.1563,7.75 L14.1563,8.0625 L9.59375,8.0625 C9.59375,9.02083 9.78125,9.69792 10.1563,10.0938 C10.5729,10.5208 11.1875,10.7344 12,10.7344 C12.2188,10.7344 12.5052,10.6875 12.8594,10.5938 C13.2135,10.5 13.5677,10.3594 13.9219,10.1719 L13.9219,10.6875 C13.5677,10.8438 13.2057,10.9609 12.8359,11.0391 C12.4661,11.1172 12.1719,11.1563 11.9531,11.1563 C11.026,11.1563 10.3281,10.9063 9.85938,10.4063 C9.34896,9.875 9.09375,9.09375 9.09375,8.0625 C9.09375,6.98958 9.32292,6.1875 9.78125,5.65625 C10.2604,5.11458 10.9271,4.84375 11.7813,4.84375 C12.5625,4.84375 13.1563,5.10417 13.5625,5.625 C13.9583,6.16667 14.1563,6.875 14.1563,7.75 M13.6563,7.64063 C13.6563,6.79688 13.4635,6.18229 13.0781,5.79688 C12.7656,5.45313 12.3333,5.28125 11.7813,5.28125 C11.1875,5.28125 10.6875,5.45833 10.2813,5.8125 C9.90625,6.14583 9.68229,6.75521 9.60938,7.64063 L13.6563,7.64063 M20.3438,5.28125 L20.3438,5.79688 C20.0521,5.61979 19.8073,5.5 19.6094,5.4375 C19.276,5.33333 18.9583,5.28125 18.6563,5.28125 C17.7917,5.28125 17.1719,5.5026 16.7969,5.94531 C16.4219,6.38802 16.2344,7.07292 16.2344,8 C16.2344,8.9375 16.4219,9.6276 16.7969,10.0703 C17.1719,10.513 17.7917,10.7344 18.6563,10.7344 C18.9479,10.7344 19.2292,10.6927 19.5,10.6094 C19.7917,10.5365 20.0729,10.4219 20.3438,10.2656 L20.3438,10.7656 C20.0729,10.901 19.7917,11 19.5,11.0625 C19.1979,11.125 18.901,11.1563 18.6094,11.1563 C17.7344,11.1563 17.0365,10.9167 16.5156,10.4375 C15.9948,9.95833 15.7344,9.14323 15.7344,7.99219 C15.7344,6.84115 15.9948,6.02604 16.5156,5.54688 C17.0365,5.07813 17.7344,4.84375 18.6094,4.84375 C18.901,4.84375 19.2083,4.88542 19.5313,4.96875 C19.8542,5.04167 20.125,5.14583 20.3438,5.28125 M25.8594,6.01563 C25.5052,5.52604 25.0208,5.28125 24.4063,5.28125 C23.7917,5.28125 23.3073,5.52604 22.9531,6.01563 C22.599,6.49479 22.4219,7.15104 22.4219,7.98438 C22.4219,8.83854 22.599,9.51042 22.9531,10 C23.3073,10.4896 23.7917,10.7344 24.4063,10.7344 C25.0208,10.7344 25.5052,10.4896 25.8594,10 C26.2135,9.5 26.3906,8.82813 26.3906,7.98438 C26.3906,7.16146 26.2135,6.50521 25.8594,6.01563 M24.4063,4.84375 C25.1667,4.84375 25.7708,5.13021 26.2188,5.70313 C26.6667,6.27604 26.8906,7.03646 26.8906,7.98438 C26.8906,8.97396 26.6667,9.75521 26.2188,10.3281 C25.7708,10.901 25.1667,11.1875 24.4063,11.1875 C23.625,11.1875 23.0104,10.901 22.5625,10.3281 C22.125,9.75521 21.9063,8.97396 21.9063,7.98438 C21.9063,7.02604 22.1302,6.26302 22.5781,5.69531 C23.026,5.1276 23.6354,4.84375 24.4063,4.84375 M32.2656,5.40625 C32.1823,5.36458 32.0729,5.33333 31.9375,5.3125 C31.8125,5.29167 31.6615,5.28125 31.4844,5.28125 C30.8698,5.28125 30.3646,5.50521 29.9688,5.95313 C29.6458,6.31771 29.4844,6.94271 29.4844,7.82813 L29.4844,11 L29,11 L29,4.98438 L29.4844,4.98438 L29.4844,6.10938 C29.651,5.78646 29.8802,5.51563 30.1719,5.29688 C30.5677,4.99479 31.0365,4.84375 31.5781,4.84375 C31.724,4.84375 31.849,4.84896 31.9531,4.85938 C32.0573,4.85938 32.1615,4.86979 32.2656,4.89063 L32.2656,5.40625 M37.5156,6.35938 L37.5156,2.64063 L37.9844,2.64063 L37.9844,11 L37.5156,11 L37.5156,9.64063 C37.2865,10.1615 37.0365,10.5156 36.7656,10.7031 C36.3698,11.0052 35.9896,11.1563 35.625,11.1563 C34.9167,11.1563 34.3255,10.8672 33.8516,10.2891 C33.3776,9.71094 33.1406,8.94792 33.1406,8 C33.1406,7.05208 33.3776,6.28906 33.8516,5.71094 C34.3255,5.13281 34.9167,4.84375 35.625,4.84375 C35.9896,4.84375 36.3698,4.98958 36.7656,5.28125 C37.0365,5.47917 37.2865,5.83854 37.5156,6.35938 M34.2813,5.90625 C33.8646,6.32292 33.6563,7.02083 33.6563,8 C33.6563,8.97917 33.8646,9.67708 34.2813,10.0938 C34.6979,10.5104 35.1354,10.7188 35.5938,10.7188 C36.0417,10.7188 36.474,10.5104 36.8906,10.0938 C37.2969,9.67708 37.5,8.97917 37.5,8 C37.5,7.02083 37.2969,6.32292 36.8906,5.90625 C36.474,5.48958 36.0417,5.28125 35.5938,5.28125 C35.1354,5.28125 34.6979,5.48958 34.2813,5.90625 M44.8438,13.1719 L44.8438,13.5938 L39.125,13.5938 L39.125,13.1719 L44.8438,13.1719 M46.375,10.5625 L48.1406,10.5625 L48.1406,3.46875 L45.9375,4.35938 L45.9375,3.85938 L48.125,2.98438 L48.6719,2.98438 L48.6719,10.5625 L50.4531,10.5625 L50.4531,11 L46.375,11 L46.375,10.5625 M56.7031,6.92969 C56.3698,6.53906 55.9193,6.34375 55.3516,6.34375 C54.7839,6.34375 54.3333,6.53906 54,6.92969 C53.6667,7.32031 53.5,7.85417 53.5,8.53125 C53.5,9.20833 53.6667,9.74219 54,10.1328 C54.3333,10.5234 54.7839,10.7188 55.3516,10.7188 C55.9193,10.7188 56.3698,10.5234 56.7031,10.1328 C57.0365,9.74219 57.2031,9.20833 57.2031,8.53125 C57.2031,7.85417 57.0365,7.32031 56.7031,6.92969 M57.3594,3.15625 L57.3594,3.73438 C57.1094,3.57813 56.8542,3.46354 56.5938,3.39063 C56.3438,3.30729 56.0938,3.26563 55.8438,3.26563 C54.7813,3.26563 54.0365,3.79167 53.6094,4.84375 C53.4115,5.3125 53.3229,6.11979 53.3438,7.26563 C53.5208,6.86979 53.75,6.5625 54.0313,6.34375 C54.3958,6.05208 54.8594,5.90625 55.4219,5.90625 C56.0885,5.90625 56.6458,6.14063 57.0938,6.60938 C57.5417,7.08854 57.7656,7.69271 57.7656,8.42188 C57.7656,9.24479 57.5469,9.90625 57.1094,10.4063 C56.6719,10.9063 56.099,11.1563 55.3906,11.1563 C54.5469,11.1563 53.901,10.8021 53.4531,10.0938 C53.0052,9.375 52.7813,8.34375 52.7813,7 C52.7813,5.5625 53.0573,4.50521 53.6094,3.82813 C54.151,3.16146 54.8854,2.82813 55.8125,2.82813 C56.0625,2.82813 56.3125,2.85938 56.5625,2.92188 C56.8125,2.97396 57.0781,3.05208 57.3594,3.15625 M63.125,3.28125 L59.7969,8.4375 L63.125,8.4375 L63.125,3.28125 M62.7031,2.98438 L63.6719,2.98438 L63.6719,8.4375 L64.8281,8.4375 L64.8281,8.875 L63.6719,8.875 L63.6719,11 L63.125,11 L63.125,8.875 L59.2344,8.875 L59.2344,8.3125 L62.7031,2.98438 M69.1875,7 C68.5833,7 68.1094,7.16667 67.7656,7.5 C67.4323,7.83333 67.2656,8.28906 67.2656,8.86719 C67.2656,9.44531 67.4323,9.90104 67.7656,10.2344 C68.1094,10.5677 68.5807,10.7344 69.1797,10.7344 C69.7786,10.7344 70.25,10.5677 70.5938,10.2344 C70.9479,9.90104 71.125,9.44792 71.125,8.875 C71.125,8.29167 70.9531,7.83333 70.6094,7.5 C70.2656,7.16667 69.7917,7 69.1875,7 M68.0938,6.73438 C67.75,6.59896 67.4688,6.38021 67.25,6.07813 C67.0104,5.76563 66.8906,5.38021 66.8906,4.92188 C66.8906,4.27604 67.0964,3.76563 67.5078,3.39063 C67.9193,3.01563 68.4792,2.82813 69.1875,2.82813 C69.8958,2.82813 70.4531,3.01563 70.8594,3.39063 C71.2656,3.76563 71.4688,4.27604 71.4688,4.92188 C71.4688,5.39063 71.3542,5.77604 71.125,6.07813 C70.8854,6.39063 70.6042,6.60938 70.2813,6.73438 C70.6771,6.85938 71,7.09375 71.25,7.4375 C71.5104,7.79167 71.6406,8.22917 71.6406,8.75 C71.6406,9.52083 71.4323,10.1146 71.0156,10.5313 C70.5885,10.9479 69.9792,11.1563 69.1875,11.1563 C68.3958,11.1563 67.7865,10.9479 67.3594,10.5313 C66.9323,10.1146 66.7188,9.52083 66.7188,8.75 C66.7188,8.22917 66.849,7.79167 67.1094,7.4375 C67.401,7.08333 67.7292,6.84896 68.0938,6.73438 M67.8984,3.71094 C67.5911,3.9974 67.4375,4.40104 67.4375,4.92188 C67.4375,5.44271 67.5911,5.84896 67.8984,6.14063 C68.2057,6.43229 68.6354,6.57813 69.1875,6.57813 C69.7292,6.57813 70.1563,6.43229 70.4688,6.14063 C70.7813,5.84896 70.9375,5.44271 70.9375,4.92188 C70.9375,4.40104 70.7813,4 70.4688,3.71875 C70.1563,3.42708 69.7292,3.28125 69.1875,3.28125 C68.6354,3.28125 68.2057,3.42448 67.8984,3.71094 M74.3125,10.5625 L76.0781,10.5625 L76.0781,3.46875 L73.875,4.35938 L73.875,3.85938 L76.0625,2.98438 L76.6094,2.98438 L76.6094,10.5625 L78.3906,10.5625 L78.3906,11 L74.3125,11 L74.3125,10.5625 M83.125,3.28125 C82.4688,3.28125 81.9792,3.59896 81.6563,4.23438 C81.3438,4.86979 81.1875,5.78906 81.1875,6.99219 C81.1875,8.19531 81.3438,9.11979 81.6563,9.76563 C81.9792,10.401 82.4688,10.7188 83.125,10.7188 C83.8021,10.7188 84.2969,10.401 84.6094,9.76563 C84.9323,9.11979 85.0938,8.19531 85.0938,6.99219 C85.0938,5.78906 84.9323,4.86979 84.6094,4.23438 C84.2969,3.59896 83.8021,3.28125 83.125,3.28125 M83.125,2.82813 C83.8958,2.82813 84.5052,3.14583 84.9531,3.78125 C85.4115,4.41667 85.6406,5.48958 85.6406,7 C85.6406,8.51042 85.4115,9.58333 84.9531,10.2188 C84.5052,10.8438 83.8958,11.1563 83.125,11.1563 C82.375,11.1563 81.7708,10.8438 81.3125,10.2188 C80.8646,9.58333 80.6406,8.51042 80.6406,7 C80.6406,5.48958 80.8646,4.41667 81.3125,3.78125 C81.7708,3.14583 82.375,2.82813 83.125,2.82813 M91.1094,6.67188 C91.5365,6.77604 91.875,7.01042 92.125,7.375 C92.3646,7.71875 92.4844,8.15104 92.4844,8.67188 C92.4844,9.46354 92.2578,10.0755 91.8047,10.5078 C91.3516,10.9401 90.625,11.1563 89.625,11.1563 C89.2813,11.1563 88.9323,11.1042 88.5781,11 C88.224,10.8958 87.8594,10.7292 87.4844,10.5 L87.4844,9.92188 C87.7865,10.1823 88.1146,10.3802 88.4688,10.5156 C88.8229,10.651 89.1875,10.7188 89.5625,10.7188 C90.3333,10.7188 90.9219,10.5417 91.3281,10.1875 C91.7344,9.84375 91.9375,9.33854 91.9375,8.67188 C91.9375,8.13021 91.75,7.70313 91.375,7.39063 C91,7.08854 90.474,6.9375 89.7969,6.9375 L88.8594,6.9375 L88.8594,6.48438 L89.8438,6.48438 C90.4583,6.48438 90.9323,6.35938 91.2656,6.10938 C91.5885,5.85938 91.75,5.5 91.75,5.03125 C91.75,4.46875 91.5833,4.03646 91.25,3.73438 C90.9063,3.43229 90.4219,3.28125 89.7969,3.28125 C89.5052,3.28125 89.1875,3.33333 88.8438,3.4375 C88.5,3.54167 88.125,3.70313 87.7188,3.92188 L87.7188,3.375 C88.1354,3.19792 88.5208,3.06771 88.875,2.98438 C89.2396,2.89063 89.5781,2.83854 89.8906,2.82813 C90.7135,2.82813 91.3229,3.01563 91.7188,3.39063 C92.1042,3.76563 92.2969,4.27604 92.2969,4.92188 C92.2969,5.33854 92.1927,5.70833 91.9844,6.03125 C91.7865,6.34375 91.4948,6.55729 91.1094,6.67188 M98.0938,6.67188 C98.5208,6.77604 98.8594,7.01042 99.1094,7.375 C99.349,7.71875 99.4688,8.15104 99.4688,8.67188 C99.4688,9.46354 99.2422,10.0755 98.7891,10.5078 C98.3359,10.9401 97.6094,11.1563 96.6094,11.1563 C96.2656,11.1563 95.9167,11.1042 95.5625,11 C95.2083,10.8958 94.8438,10.7292 94.4688,10.5 L94.4688,9.92188 C94.7708,10.1823 95.099,10.3802 95.4531,10.5156 C95.8073,10.651 96.1719,10.7188 96.5469,10.7188 C97.3177,10.7188 97.9063,10.5417 98.3125,10.1875 C98.7188,9.84375 98.9219,9.33854 98.9219,8.67188 C98.9219,8.13021 98.7344,7.70313 98.3594,7.39063 C97.9844,7.08854 97.4583,6.9375 96.7813,6.9375 L95.8438,6.9375 L95.8438,6.48438 L96.8281,6.48438 C97.4427,6.48438 97.9167,6.35938 98.25,6.10938 C98.5729,5.85938 98.7344,5.5 98.7344,5.03125 C98.7344,4.46875 98.5677,4.03646 98.2344,3.73438 C97.8906,3.43229 97.4063,3.28125 96.7813,3.28125 C96.4896,3.28125 96.1719,3.33333 95.8281,3.4375 C95.4844,3.54167 95.1094,3.70313 94.7031,3.92188 L94.7031,3.375 C95.1198,3.19792 95.5052,3.06771 95.8594,2.98438 C96.224,2.89063 96.5625,2.83854 96.875,2.82813 C97.6979,2.82813 98.3073,3.01563 98.7031,3.39063 C99.0885,3.76563 99.2813,4.27604 99.2813,4.92188 C99.2813,5.33854 99.1771,5.70833 98.9688,6.03125 C98.7708,6.34375 98.4792,6.55729 98.0938,6.67188 M102.016,2.98438 L105.813,2.98438 L105.813,3.42188 L102.547,3.42188 L102.547,6.10938 C102.714,6.04688 102.875,6 103.031,5.96875 C103.188,5.9375 103.417,5.92188 103.719,5.92188 C104.542,5.92188 105.193,6.15104 105.672,6.60938 C106.151,7.05729 106.391,7.66146 106.391,8.42188 C106.391,9.28646 106.141,9.95833 105.641,10.4375 C105.151,10.9167 104.458,11.1563 103.563,11.1563 C103.271,11.1563 102.969,11.1302 102.656,11.0781 C102.344,11.026 102.021,10.9531 101.688,10.8594 L101.688,10.3125 C101.969,10.4375 102.26,10.5365 102.563,10.6094 C102.865,10.6719 103.182,10.7031 103.516,10.7031 C104.224,10.7031 104.792,10.5 105.219,10.0938 C105.646,9.6875 105.859,9.13021 105.859,8.42188 C105.859,7.78646 105.651,7.28646 105.234,6.92188 C104.818,6.54688 104.255,6.35938 103.547,6.35938 C103.401,6.35938 103.182,6.40104 102.891,6.48438 C102.609,6.55729 102.318,6.67708 102.016,6.84375 L102.016,2.98438 M108.922,10.5625 L113.484,10.5625 L113.484,11 L108.359,11 L108.359,10.4375 L110.359,8.35938 C110.849,7.85938 111.297,7.39583 111.703,6.96875 C112.068,6.57292 112.313,6.26563 112.438,6.04688 C112.563,5.82813 112.625,5.53646 112.625,5.17188 C112.625,4.55729 112.438,4.0625 112.063,3.6875 C111.792,3.41667 111.349,3.28125 110.734,3.28125 C110.37,3.28125 109.958,3.38542 109.5,3.59375 C109.292,3.6875 108.943,3.89063 108.453,4.20313 L108.453,3.64063 C108.661,3.49479 108.964,3.32813 109.359,3.14063 C109.818,2.94271 110.271,2.83854 110.719,2.82813 C111.406,2.82813 111.984,3.01042 112.453,3.375 C112.911,3.72917 113.141,4.3125 113.141,5.125 C113.141,5.45833 113.078,5.77083 112.953,6.0625 C112.807,6.40625 112.583,6.75521 112.281,7.10938 C112.188,7.21354 111.901,7.51042 111.422,8 L108.922,10.5625 M118.047,3.28125 C117.391,3.28125 116.901,3.59896 116.578,4.23438 C116.266,4.86979 116.109,5.78906 116.109,6.99219 C116.109,8.19531 116.266,9.11979 116.578,9.76563 C116.901,10.401 117.391,10.7188 118.047,10.7188 C118.724,10.7188 119.219,10.401 119.531,9.76563 C119.854,9.11979 120.016,8.19531 120.016,6.99219 C120.016,5.78906 119.854,4.86979 119.531,4.23438 C119.219,3.59896 118.724,3.28125 118.047,3.28125 M118.047,2.82813 C118.818,2.82813 119.427,3.14583 119.875,3.78125 C120.333,4.41667 120.563,5.48958 120.563,7 C120.563,8.51042 120.333,9.58333 119.875,10.2188 C119.427,10.8438 118.818,11.1563 118.047,11.1563 C117.297,11.1563 116.693,10.8438 116.234,10.2188 C115.786,9.58333 115.563,8.51042 115.563,7 C115.563,5.48958 115.786,4.41667 116.234,3.78125 C116.693,3.14583 117.297,2.82813 118.047,2.82813 M122.891,10.5625 L127.453,10.5625 L127.453,11 L122.328,11 L122.328,10.4375 L124.328,8.35938 C124.818,7.85938 125.266,7.39583 125.672,6.96875 C126.036,6.57292 126.281,6.26563 126.406,6.04688 C126.531,5.82813 126.594,5.53646 126.594,5.17188 C126.594,4.55729 126.406,4.0625 126.031,3.6875 C125.76,3.41667 125.318,3.28125 124.703,3.28125 C124.339,3.28125 123.927,3.38542 123.469,3.59375 C123.26,3.6875 122.911,3.89063 122.422,4.20313 L122.422,3.64063 C122.63,3.49479 122.932,3.32813 123.328,3.14063 C123.786,2.94271 124.24,2.83854 124.688,2.82813 C125.375,2.82813 125.953,3.01042 126.422,3.375 C126.88,3.72917 127.109,4.3125 127.109,5.125 C127.109,5.45833 127.047,5.77083 126.922,6.0625 C126.776,6.40625 126.552,6.75521 126.25,7.10938 C126.156,7.21354 125.87,7.51042 125.391,8 L122.891,10.5625 M132.969,3.28125 L129.641,8.4375 L132.969,8.4375 L132.969,3.28125 M132.547,2.98438 L133.516,2.98438 L133.516,8.4375 L134.672,8.4375 L134.672,8.875 L133.516,8.875 L133.516,11 L132.969,11 L132.969,8.875 L129.078,8.875 L129.078,8.3125 L132.547,2.98438 M139.953,3.28125 L136.625,8.4375 L139.953,8.4375 L139.953,3.28125 M139.531,2.98438 L140.5,2.98438 L140.5,8.4375 L141.656,8.4375 L141.656,8.875 L140.5,8.875 L140.5,11 L139.953,11 L139.953,8.875 L136.063,8.875 L136.063,8.3125 L139.531,2.98438 M144.156,10.5625 L145.922,10.5625 L145.922,3.46875 L143.719,4.35938 L143.719,3.85938 L145.906,2.98438 L146.453,2.98438 L146.453,10.5625 L148.234,10.5625 L148.234,11 L144.156,11 L144.156,10.5625 M154.484,6.92969 C154.151,6.53906 153.701,6.34375 153.133,6.34375 C152.565,6.34375 152.115,6.53906 151.781,6.92969 C151.448,7.32031 151.281,7.85417 151.281,8.53125 C151.281,9.20833 151.448,9.74219 151.781,10.1328 C152.115,10.5234 152.565,10.7188 153.133,10.7188 C153.701,10.7188 154.151,10.5234 154.484,10.1328 C154.818,9.74219 154.984,9.20833 154.984,8.53125 C154.984,7.85417 154.818,7.32031 154.484,6.92969 M155.141,3.15625 L155.141,3.73438 C154.891,3.57813 154.635,3.46354 154.375,3.39063 C154.125,3.30729 153.875,3.26563 153.625,3.26563 C152.563,3.26563 151.818,3.79167 151.391,4.84375 C151.193,5.3125 151.104,6.11979 151.125,7.26563 C151.302,6.86979 151.531,6.5625 151.813,6.34375 C152.177,6.05208 152.641,5.90625 153.203,5.90625 C153.87,5.90625 154.427,6.14063 154.875,6.60938 C155.323,7.08854 155.547,7.69271 155.547,8.42188 C155.547,9.24479 155.328,9.90625 154.891,10.4063 C154.453,10.9063 153.88,11.1563 153.172,11.1563 C152.328,11.1563 151.682,10.8021 151.234,10.0938 C150.786,9.375 150.563,8.34375 150.563,7 C150.563,5.5625 150.839,4.50521 151.391,3.82813 C151.932,3.16146 152.667,2.82813 153.594,2.82813 C153.844,2.82813 154.094,2.85938 154.344,2.92188 C154.594,2.97396 154.859,3.05208 155.141,3.15625 M160.906,3.28125 L157.578,8.4375 L160.906,8.4375 L160.906,3.28125 M160.484,2.98438 L161.453,2.98438 L161.453,8.4375 L162.609,8.4375 L162.609,8.875 L161.453,8.875 L161.453,11 L160.906,11 L160.906,8.875 L157.016,8.875 L157.016,8.3125 L160.484,2.98438 M165.109,10.5625 L166.875,10.5625 L166.875,3.46875 L164.672,4.35938 L164.672,3.85938 L166.859,2.98438 L167.406,2.98438 L167.406,10.5625 L169.188,10.5625 L169.188,11 L165.109,11 L165.109,10.5625 M174.875,3.28125 L171.547,8.4375 L174.875,8.4375 L174.875,3.28125 M174.453,2.98438 L175.422,2.98438 L175.422,8.4375 L176.578,8.4375 L176.578,8.875 L175.422,8.875 L175.422,11 L174.875,11 L174.875,8.875 L170.984,8.875 L170.984,8.3125 L174.453,2.98438"/>
</g>

<g fill="none" stroke="#000000" stroke-opacity="1" stroke-width="1" stroke-linecap="square" stroke-linejoin="bevel" transform="matrix(1.99938,0,0,1.99938,672.713,138.957)"
font-family="sans" font-size="11" font-weight="100" font-style="normal" 
>
</g>

<g fill="none" stroke="#000000" stroke-opacity="1" stroke-width="1" stroke-linecap="square" stroke-linejoin="bevel" transform="matrix(1.99938,0,0,1.99938,672.713,138.957)"
font-family="Ubuntu" font-size="11" font-weight="400" font-style="normal" 
>
</g>

<g fill="none" stroke="#000000" stroke-opacity="1" stroke-width="1" stroke-linecap="square" stroke-linejoin="bevel" transform="matrix(1.99938,0,0,1.99938,0.00079975,274.914)"
font-family="Ubuntu" font-size="11" font-weight="400" font-style="normal" 
>
</g>

<g fill="none" stroke="#000000" stroke-opacity="1" stroke-width="1" stroke-linecap="square" stroke-linejoin="bevel" transform="matrix(1.99938,0,0,1.99938,0.00079975,274.914)"
font-family="Ubuntu" font-size="11" font-weight="400" font-style="normal" 
>
</g>

<g fill="none" stroke="#000000" stroke-opacity="1" stroke-width="1" stroke-linecap="square" stroke-linejoin="bevel" transform="matrix(1.99938,0,0,1.99938,0.00079975,274.914)"
font-family="Ubuntu" font-size="11" font-weight="400" font-style="normal" 
>
</g>

<g fill="none" stroke="#000000" stroke-opacity="1" stroke-width="1" stroke-linecap="square" stroke-linejoin="round" transform="matrix(1.99938,0,0,1.99938,0.00079975,274.914)"
font-family="Ubuntu" font-size="11" font-weight="400" font-style="normal" 
>
<ellipse cx="70.844" cy="-61" rx="70.3444" ry="17.5"/>
</g>

<g fill="none" stroke="#000000" stroke-opacity="1" stroke-width="1" stroke-linecap="square" stroke-linejoin="bevel" transform="matrix(1.99938,0,0,1.99938,0.00079975,274.914)"
font-family="Ubuntu" font-size="11" font-weight="400" font-style="normal" 
>
</g>

<g fill="none" stroke="#000000" stroke-opacity="1" stroke-width="1" stroke-linecap="square" stroke-linejoin="bevel" transform="matrix(1.99938,0,0,1.99938,48.2831,138.957)"
font-family="Ubuntu" font-size="11" font-weight="400" font-style="normal" 
>
</g>

<g fill="none" stroke="#000000" stroke-opacity="1" stroke-width="1" stroke-linecap="square" stroke-linejoin="bevel" transform="matrix(1.99938,0,0,1.99938,48.2831,138.957)"
font-family="sans" font-size="11" font-weight="100" font-style="normal" 
>
</g>

<g fill="#000000" fill-opacity="1" stroke="#000000" stroke-opacity="1" stroke-width="1" stroke-linecap="square" stroke-linejoin="round" transform="matrix(1.99938,0,0,1.99938,48.2831,138.957)"
font-family="sans" font-size="11" font-weight="100" font-style="normal" 
>
<path vector-effect="none" fill-rule="nonzero" d="M2.96875,2.98438 L3.53125,2.98438 L0.734375,12.0156 L0.171875,12.0156 L2.96875,2.98438 M8.35938,5.15625 L8.35938,5.70313 C8.00521,5.50521 7.78646,5.39583 7.70313,5.375 C7.45313,5.32292 7.14063,5.29167 6.76563,5.28125 C6.20313,5.28125 5.76042,5.39063 5.4375,5.60938 C5.1875,5.79688 5.0625,6.11458 5.0625,6.5625 C5.0625,6.875 5.18229,7.11458 5.42188,7.28125 C5.66146,7.46875 6.01042,7.61458 6.46875,7.71875 L6.8125,7.78125 C7.38542,7.90625 7.81771,8.08333 8.10938,8.3125 C8.45313,8.58333 8.63021,8.92708 8.64063,9.34375 C8.64063,9.90625 8.47396,10.349 8.14063,10.6719 C7.78646,10.9948 7.20833,11.1563 6.40625,11.1563 C5.96875,11.1563 5.63542,11.125 5.40625,11.0625 C5.125,10.9896 4.83333,10.8958 4.53125,10.7813 L4.53125,10.1563 C4.96875,10.4063 5.25,10.5521 5.375,10.5938 C5.72917,10.6875 6.08333,10.7344 6.4375,10.7344 C7.01042,10.7344 7.4375,10.6146 7.71875,10.375 C8,10.125 8.14063,9.80729 8.14063,9.42188 C8.14063,9.08854 8.04688,8.84896 7.85938,8.70313 C7.58854,8.48438 7.16146,8.30729 6.57813,8.17188 L6.23438,8.09375 C5.72396,7.96875 5.33854,7.80208 5.07813,7.59375 C4.74479,7.32292 4.57813,6.99479 4.57813,6.60938 C4.57813,5.98438 4.77865,5.53385 5.17969,5.25781 C5.58073,4.98177 6.07292,4.84375 6.65625,4.84375 C7.15625,4.84375 7.5,4.86979 7.6875,4.92188 C7.91667,4.98438 8.14063,5.0625 8.35938,5.15625 M10.6563,4.98438 L11.1563,4.98438 L11.1563,11 L10.6563,11 L10.6563,4.98438 M10.6563,2.64063 L11.1563,2.64063 L11.1563,3.3125 L10.6563,3.3125 L10.6563,2.64063 M18.0469,6.29688 C18.2344,5.80729 18.526,5.44271 18.9219,5.20313 C19.3073,4.96354 19.7604,4.84375 20.2813,4.84375 C20.8021,4.84375 21.2188,5.02604 21.5313,5.39063 C21.8542,5.75521 22.0156,6.41667 22.0156,7.375 L22.0156,11 L21.5313,11 L21.5313,7.40625 C21.5313,6.57292 21.4167,6.01042 21.1875,5.71875 C20.9583,5.42708 20.651,5.28125 20.2656,5.28125 C19.7135,5.28125 19.2292,5.44792 18.8125,5.78125 C18.3438,6.15625 18.1094,6.76042 18.1094,7.59375 L18.1094,11 L17.625,11 L17.625,7.40625 C17.625,6.60417 17.513,6.04948 17.2891,5.74219 C17.0651,5.4349 16.7552,5.28125 16.3594,5.28125 C15.8073,5.28125 15.3229,5.45313 14.9063,5.79688 C14.4375,6.16146 14.2031,6.76042 14.2031,7.59375 L14.2031,11 L13.7188,11 L13.7188,4.98438 L14.2031,4.98438 L14.2031,6.10938 C14.3802,5.71354 14.6563,5.40104 15.0313,5.17188 C15.3958,4.95313 15.849,4.84375 16.3906,4.84375 C16.7448,4.84375 17.0833,4.95833 17.4063,5.1875 C17.6563,5.375 17.8698,5.74479 18.0469,6.29688 M24.3594,8.60938 L24.3594,4.98438 L24.8438,4.98438 L24.8438,8.57813 C24.8438,9.35938 24.9688,9.90885 25.2188,10.2266 C25.4688,10.5443 25.8385,10.7031 26.3281,10.7031 C26.901,10.7031 27.3906,10.5313 27.7969,10.1875 C28.2031,9.84375 28.4063,9.24479 28.4063,8.39063 L28.4063,4.98438 L28.8906,4.98438 L28.8906,11 L28.4063,11 L28.4063,9.875 C28.2292,10.2396 27.9948,10.5156 27.7031,10.7031 C27.2865,10.9948 26.8229,11.1406 26.3125,11.1406 C25.7188,11.1406 25.2448,10.9375 24.8906,10.5313 C24.5365,10.1354 24.3594,9.49479 24.3594,8.60938 M31.3906,2.64063 L31.875,2.64063 L31.875,11 L31.3906,11 L31.3906,2.64063 M36.8438,7.60938 C36.0417,7.60938 35.4661,7.75 35.1172,8.03125 C34.7682,8.3125 34.5938,8.72396 34.5938,9.26563 C34.5938,9.79688 34.7396,10.1745 35.0313,10.3984 C35.3229,10.6224 35.6667,10.7344 36.0625,10.7344 C36.8125,10.7344 37.3542,10.4167 37.6875,9.78125 C38.0208,9.13542 38.1875,8.53125 38.1875,7.96875 L38.1875,7.60938 L36.8438,7.60938 M38.6875,7.5625 L38.6875,11 L38.1875,11 L38.1875,9.35938 C37.9167,10.1615 37.5521,10.6719 37.0938,10.8906 C36.7396,11.0677 36.3802,11.1563 36.0156,11.1563 C35.4219,11.1563 34.9531,10.9948 34.6094,10.6719 C34.2656,10.349 34.0938,9.8776 34.0938,9.25781 C34.0938,8.63802 34.3177,8.14063 34.7656,7.76563 C35.2135,7.39063 35.9427,7.20313 36.9531,7.20313 L38.1875,7.20313 L38.1875,7.10938 C38.1875,6.57813 38.0313,6.14063 37.7188,5.79688 C37.4271,5.45313 36.9323,5.28125 36.2344,5.28125 C35.8906,5.28125 35.5417,5.34375 35.1875,5.46875 C34.9583,5.55208 34.6563,5.71875 34.2813,5.96875 L34.2813,5.4375 C34.6042,5.23958 34.9063,5.09896 35.1875,5.01563 C35.5833,4.90104 35.9635,4.84375 36.3281,4.84375 C37.0469,4.84375 37.6354,5.05729 38.0938,5.48438 C38.4896,5.84896 38.6875,6.54167 38.6875,7.5625 M41.6875,3.28125 L41.6875,4.98438 L43.7188,4.98438 L43.7188,5.40625 L41.6875,5.40625 L41.6875,9.01563 C41.6875,9.47396 41.7448,9.79688 41.8594,9.98438 C42.1094,10.3802 42.4688,10.5781 42.9375,10.5781 L43.7188,10.5781 L43.7188,11 L42.9531,11 C42.4635,11 42.0469,10.8568 41.7031,10.5703 C41.3594,10.2839 41.1875,9.76563 41.1875,9.01563 L41.1875,5.40625 L40.4688,5.40625 L40.4688,4.98438 L41.1875,4.98438 L41.1875,3.28125 L41.6875,3.28125 M50.1719,7.75 L50.1719,8.0625 L45.6094,8.0625 C45.6094,9.02083 45.7969,9.69792 46.1719,10.0938 C46.5885,10.5208 47.2031,10.7344 48.0156,10.7344 C48.2344,10.7344 48.5208,10.6875 48.875,10.5938 C49.2292,10.5 49.5833,10.3594 49.9375,10.1719 L49.9375,10.6875 C49.5833,10.8438 49.2214,10.9609 48.8516,11.0391 C48.4818,11.1172 48.1875,11.1563 47.9688,11.1563 C47.0417,11.1563 46.3438,10.9063 45.875,10.4063 C45.3646,9.875 45.1094,9.09375 45.1094,8.0625 C45.1094,6.98958 45.3385,6.1875 45.7969,5.65625 C46.276,5.11458 46.9427,4.84375 47.7969,4.84375 C48.5781,4.84375 49.1719,5.10417 49.5781,5.625 C49.974,6.16667 50.1719,6.875 50.1719,7.75 M49.6719,7.64063 C49.6719,6.79688 49.4792,6.18229 49.0938,5.79688 C48.7813,5.45313 48.349,5.28125 47.7969,5.28125 C47.2031,5.28125 46.7031,5.45833 46.2969,5.8125 C45.9219,6.14583 45.6979,6.75521 45.625,7.64063 L49.6719,7.64063 M56.25,6.35938 L56.25,2.64063 L56.7188,2.64063 L56.7188,11 L56.25,11 L56.25,9.64063 C56.0208,10.1615 55.7708,10.5156 55.5,10.7031 C55.1042,11.0052 54.724,11.1563 54.3594,11.1563 C53.651,11.1563 53.0599,10.8672 52.5859,10.2891 C52.112,9.71094 51.875,8.94792 51.875,8 C51.875,7.05208 52.112,6.28906 52.5859,5.71094 C53.0599,5.13281 53.651,4.84375 54.3594,4.84375 C54.724,4.84375 55.1042,4.98958 55.5,5.28125 C55.7708,5.47917 56.0208,5.83854 56.25,6.35938 M53.0156,5.90625 C52.599,6.32292 52.3906,7.02083 52.3906,8 C52.3906,8.97917 52.599,9.67708 53.0156,10.0938 C53.4323,10.5104 53.8698,10.7188 54.3281,10.7188 C54.776,10.7188 55.2083,10.5104 55.625,10.0938 C56.0313,9.67708 56.2344,8.97917 56.2344,8 C56.2344,7.02083 56.0313,6.32292 55.625,5.90625 C55.2083,5.48958 54.776,5.28125 54.3281,5.28125 C53.8698,5.28125 53.4323,5.48958 53.0156,5.90625 M63.5781,13.1719 L63.5781,13.5938 L57.8594,13.5938 L57.8594,13.1719 L63.5781,13.1719 M65.2344,3.28125 L65.2344,4.98438 L67.2656,4.98438 L67.2656,5.40625 L65.2344,5.40625 L65.2344,9.01563 C65.2344,9.47396 65.2917,9.79688 65.4063,9.98438 C65.6563,10.3802 66.0156,10.5781 66.4844,10.5781 L67.2656,10.5781 L67.2656,11 L66.5,11 C66.0104,11 65.5938,10.8568 65.25,10.5703 C64.9063,10.2839 64.7344,9.76563 64.7344,9.01563 L64.7344,5.40625 L64.0156,5.40625 L64.0156,4.98438 L64.7344,4.98438 L64.7344,3.28125 L65.2344,3.28125 M68.9688,8.60938 L68.9688,4.98438 L69.4531,4.98438 L69.4531,8.57813 C69.4531,9.35938 69.5781,9.90885 69.8281,10.2266 C70.0781,10.5443 70.4479,10.7031 70.9375,10.7031 C71.5104,10.7031 72,10.5313 72.4063,10.1875 C72.8125,9.84375 73.0156,9.24479 73.0156,8.39063 L73.0156,4.98438 L73.5,4.98438 L73.5,11 L73.0156,11 L73.0156,9.875 C72.8385,10.2396 72.6042,10.5156 72.3125,10.7031 C71.8958,10.9948 71.4323,11.1406 70.9219,11.1406 C70.3281,11.1406 69.8542,10.9375 69.5,10.5313 C69.1458,10.1354 68.9688,9.49479 68.9688,8.60938 M79.2656,5.40625 C79.1823,5.36458 79.0729,5.33333 78.9375,5.3125 C78.8125,5.29167 78.6615,5.28125 78.4844,5.28125 C77.8698,5.28125 77.3646,5.50521 76.9688,5.95313 C76.6458,6.31771 76.4844,6.94271 76.4844,7.82813 L76.4844,11 L76,11 L76,4.98438 L76.4844,4.98438 L76.4844,6.10938 C76.651,5.78646 76.8802,5.51563 77.1719,5.29688 C77.5677,4.99479 78.0365,4.84375 78.5781,4.84375 C78.724,4.84375 78.849,4.84896 78.9531,4.85938 C79.0573,4.85938 79.1615,4.86979 79.2656,4.89063 L79.2656,5.40625 M81.0313,3.28125 L81.0313,4.98438 L83.0625,4.98438 L83.0625,5.40625 L81.0313,5.40625 L81.0313,9.01563 C81.0313,9.47396 81.0885,9.79688 81.2031,9.98438 C81.4531,10.3802 81.8125,10.5781 82.2813,10.5781 L83.0625,10.5781 L83.0625,11 L82.2969,11 C81.8073,11 81.3906,10.8568 81.0469,10.5703 C80.7031,10.2839 80.5313,9.76563 80.5313,9.01563 L80.5313,5.40625 L79.8125,5.40625 L79.8125,4.98438 L80.5313,4.98438 L80.5313,3.28125 L81.0313,3.28125 M84.8281,2.64063 L85.3125,2.64063 L85.3125,11 L84.8281,11 L84.8281,2.64063 M92.5625,7.75 L92.5625,8.0625 L88,8.0625 C88,9.02083 88.1875,9.69792 88.5625,10.0938 C88.9792,10.5208 89.5938,10.7344 90.4063,10.7344 C90.625,10.7344 90.9115,10.6875 91.2656,10.5938 C91.6198,10.5 91.974,10.3594 92.3281,10.1719 L92.3281,10.6875 C91.974,10.8438 91.612,10.9609 91.2422,11.0391 C90.8724,11.1172 90.5781,11.1563 90.3594,11.1563 C89.4323,11.1563 88.7344,10.9063 88.2656,10.4063 C87.7552,9.875 87.5,9.09375 87.5,8.0625 C87.5,6.98958 87.7292,6.1875 88.1875,5.65625 C88.6667,5.11458 89.3333,4.84375 90.1875,4.84375 C90.9688,4.84375 91.5625,5.10417 91.9688,5.625 C92.3646,6.16667 92.5625,6.875 92.5625,7.75 M92.0625,7.64063 C92.0625,6.79688 91.8698,6.18229 91.4844,5.79688 C91.1719,5.45313 90.7396,5.28125 90.1875,5.28125 C89.5938,5.28125 89.0938,5.45833 88.6875,5.8125 C88.3125,6.14583 88.0885,6.75521 88.0156,7.64063 L92.0625,7.64063"/>
</g>

<g fill="none" stroke="#000000" stroke-opacity="1" stroke-width="1" stroke-linecap="square" stroke-linejoin="bevel" transform="matrix(1.99938,0,0,1.99938,48.2831,138.957)"
font-family="sans" font-size="11" font-weight="100" font-style="normal" 
>
</g>

<g fill="none" stroke="#000000" stroke-opacity="1" stroke-width="1" stroke-linecap="square" stroke-linejoin="bevel" transform="matrix(1.99938,0,0,1.99938,48.2831,138.957)"
font-family="Ubuntu" font-size="11" font-weight="400" font-style="normal" 
>
</g>

<g fill="none" stroke="#000000" stroke-opacity="1" stroke-width="1" stroke-linecap="square" stroke-linejoin="bevel" transform="matrix(1.99938,0,0,1.99938,0.00079975,274.914)"
font-family="Ubuntu" font-size="11" font-weight="400" font-style="normal" 
>
</g>

<g fill="none" stroke="#000000" stroke-opacity="1" stroke-width="1" stroke-linecap="square" stroke-linejoin="bevel" transform="matrix(1.99938,0,0,1.99938,0.00079975,274.914)"
font-family="Ubuntu" font-size="11" font-weight="400" font-style="normal" 
>
</g>

<g fill="none" stroke="#000000" stroke-opacity="1" stroke-width="1" stroke-linecap="square" stroke-linejoin="bevel" transform="matrix(1.99938,0,0,1.99938,0.00079975,274.914)"
font-family="Ubuntu" font-size="11" font-weight="400" font-style="normal" 
>
</g>

<g fill="none" stroke="#000000" stroke-opacity="1" stroke-width="1" stroke-linecap="square" stroke-linejoin="round" transform="matrix(1.99938,0,0,1.99938,0.00079975,274.914)"
font-family="Ubuntu" font-size="11" font-weight="400" font-style="normal" 
>
<path vector-effect="none" fill-rule="evenodd" d="M285.79,-79.494 C297.95,-77.88 310.95,-76.156 323.94,-74.433 "/>
</g>

<g fill="none" stroke="#000000" stroke-opacity="1" stroke-width="1" stroke-linecap="square" stroke-linejoin="bevel" transform="matrix(1.99938,0,0,1.99938,0.00079975,274.914)"
font-family="Ubuntu" font-size="11" font-weight="400" font-style="normal" 
>
</g>

<g fill="none" stroke="#000000" stroke-opacity="1" stroke-width="1" stroke-linecap="square" stroke-linejoin="bevel" transform="matrix(1.99938,0,0,1.99938,0.00079975,274.914)"
font-family="Ubuntu" font-size="11" font-weight="400" font-style="normal" 
>
</g>

<g fill="#000000" fill-opacity="1" stroke="#000000" stroke-opacity="1" stroke-width="1" stroke-linecap="square" stroke-linejoin="round" transform="matrix(1.99938,0,0,1.99938,0.00079975,274.914)"
font-family="Ubuntu" font-size="11" font-weight="400" font-style="normal" 
>
<path vector-effect="none" fill-rule="evenodd" d="M323.94,-74.433 L323.48,-70.9645 L333.85,-73.118 L324.4,-77.9015 L323.94,-74.433"/>
</g>

<g fill="none" stroke="#000000" stroke-opacity="1" stroke-width="1" stroke-linecap="square" stroke-linejoin="bevel" transform="matrix(1.99938,0,0,1.99938,0.00079975,274.914)"
font-family="Ubuntu" font-size="11" font-weight="400" font-style="normal" 
>
</g>

<g fill="none" stroke="#000000" stroke-opacity="1" stroke-width="1" stroke-linecap="square" stroke-linejoin="bevel" transform="matrix(1.99938,0,0,1.99938,0.00079975,274.914)"
font-family="Ubuntu" font-size="11" font-weight="400" font-style="normal" 
>
</g>

<g fill="none" stroke="#000000" stroke-opacity="1" stroke-width="1" stroke-linecap="square" stroke-linejoin="bevel" transform="matrix(1.99938,0,0,1.99938,0.00079975,274.914)"
font-family="Ubuntu" font-size="11" font-weight="400" font-style="normal" 
>
</g>

<g fill="none" stroke="#000000" stroke-opacity="1" stroke-width="1" stroke-linecap="square" stroke-linejoin="bevel" transform="matrix(1.99938,0,0,1.99938,0.00079975,274.914)"
font-family="Ubuntu" font-size="11" font-weight="400" font-style="normal" 
>
</g>

<g fill="none" stroke="#000000" stroke-opacity="1" stroke-width="1" stroke-linecap="square" stroke-linejoin="round" transform="matrix(1.99938,0,0,1.99938,0.00079975,274.914)"
font-family="Ubuntu" font-size="11" font-weight="400" font-style="normal" 
>
<path vector-effect="none" fill-rule="evenodd" d="M263.85,-39.594 C281.34,-41.915 302.45,-44.716 323.55,-47.516 "/>
</g>

<g fill="none" stroke="#000000" stroke-opacity="1" stroke-width="1" stroke-linecap="square" stroke-linejoin="bevel" transform="matrix(1.99938,0,0,1.99938,0.00079975,274.914)"
font-family="Ubuntu" font-size="11" font-weight="400" font-style="normal" 
>
</g>

<g fill="none" stroke="#000000" stroke-opacity="1" stroke-width="1" stroke-linecap="square" stroke-linejoin="bevel" transform="matrix(1.99938,0,0,1.99938,0.00079975,274.914)"
font-family="Ubuntu" font-size="11" font-weight="400" font-style="normal" 
>
</g>

<g fill="#000000" fill-opacity="1" stroke="#000000" stroke-opacity="1" stroke-width="1" stroke-linecap="square" stroke-linejoin="round" transform="matrix(1.99938,0,0,1.99938,0.00079975,274.914)"
font-family="Ubuntu" font-size="11" font-weight="400" font-style="normal" 
>
<path vector-effect="none" fill-rule="evenodd" d="M323.55,-47.516 L324.015,-44.009 L333.57,-48.845 L323.085,-51.023 L323.55,-47.516"/>
</g>

<g fill="none" stroke="#000000" stroke-opacity="1" stroke-width="1" stroke-linecap="square" stroke-linejoin="bevel" transform="matrix(1.99938,0,0,1.99938,0.00079975,274.914)"
font-family="Ubuntu" font-size="11" font-weight="400" font-style="normal" 
>
</g>

<g fill="none" stroke="#000000" stroke-opacity="1" stroke-width="1" stroke-linecap="square" stroke-linejoin="bevel" transform="matrix(1.99938,0,0,1.99938,0.00079975,274.914)"
font-family="Ubuntu" font-size="11" font-weight="400" font-style="normal" 
>
</g>

<g fill="none" stroke="#000000" stroke-opacity="1" stroke-width="1" stroke-linecap="square" stroke-linejoin="bevel" transform="matrix(1.99938,0,0,1.99938,0.00079975,274.914)"
font-family="Ubuntu" font-size="11" font-weight="400" font-style="normal" 
>
</g>

<g fill="none" stroke="#000000" stroke-opacity="1" stroke-width="1" stroke-linecap="square" stroke-linejoin="bevel" transform="matrix(1.99938,0,0,1.99938,0.00079975,274.914)"
font-family="Ubuntu" font-size="11" font-weight="400" font-style="normal" 
>
</g>

<g fill="none" stroke="#000000" stroke-opacity="1" stroke-width="1" stroke-linecap="square" stroke-linejoin="round" transform="matrix(1.99938,0,0,1.99938,0.00079975,274.914)"
font-family="Ubuntu" font-size="11" font-weight="400" font-style="normal" 
>
<path vector-effect="none" fill-rule="evenodd" d="M129.16,-50.561 C142.38,-48.196 156.33,-45.698 169.28,-43.38 "/>
</g>

<g fill="none" stroke="#000000" stroke-opacity="1" stroke-width="1" stroke-linecap="square" stroke-linejoin="bevel" transform="matrix(1.99938,0,0,1.99938,0.00079975,274.914)"
font-family="Ubuntu" font-size="11" font-weight="400" font-style="normal" 
>
</g>

<g fill="none" stroke="#000000" stroke-opacity="1" stroke-width="1" stroke-linecap="square" stroke-linejoin="bevel" transform="matrix(1.99938,0,0,1.99938,0.00079975,274.914)"
font-family="Ubuntu" font-size="11" font-weight="400" font-style="normal" 
>
</g>

<g fill="#000000" fill-opacity="1" stroke="#000000" stroke-opacity="1" stroke-width="1" stroke-linecap="square" stroke-linejoin="round" transform="matrix(1.99938,0,0,1.99938,0.00079975,274.914)"
font-family="Ubuntu" font-size="11" font-weight="400" font-style="normal" 
>
<path vector-effect="none" fill-rule="evenodd" d="M169.28,-43.38 L168.645,-39.831 L179.42,-41.565 L169.915,-46.929 L169.28,-43.38"/>
</g>

<g fill="none" stroke="#000000" stroke-opacity="1" stroke-width="1" stroke-linecap="square" stroke-linejoin="bevel" transform="matrix(1.99938,0,0,1.99938,0.00079975,274.914)"
font-family="Ubuntu" font-size="11" font-weight="400" font-style="normal" 
>
</g>

<g fill="none" stroke="#000000" stroke-opacity="1" stroke-width="1" stroke-linecap="square" stroke-linejoin="bevel" transform="matrix(1.99938,0,0,1.99938,0.00079975,274.914)"
font-family="Ubuntu" font-size="11" font-weight="400" font-style="normal" 
>
</g>

<g fill="none" stroke="#000000" stroke-opacity="1" stroke-width="1" stroke-linecap="square" stroke-linejoin="bevel" transform="matrix(1.99938,0,0,1.99938,0.00079975,274.914)"
font-family="Ubuntu" font-size="11" font-weight="400" font-style="normal" 
>
</g>

<g fill="none" stroke="#000000" stroke-opacity="1" stroke-width="1" stroke-linecap="square" stroke-linejoin="bevel" transform="matrix(1.99938,0,0,1.99938,0.00079975,274.914)"
font-family="Ubuntu" font-size="11" font-weight="400" font-style="normal" 
>
</g>

<g fill="none" stroke="#000000" stroke-opacity="1" stroke-width="1" stroke-linecap="square" stroke-linejoin="round" transform="matrix(1.99938,0,0,1.99938,0.00079975,274.914)"
font-family="Ubuntu" font-size="11" font-weight="400" font-style="normal" 
>
<path vector-effect="none" fill-rule="evenodd" d="M129.16,-71.439 C135.11,-72.504 141.21,-73.595 147.3,-74.685 "/>
</g>

<g fill="none" stroke="#000000" stroke-opacity="1" stroke-width="1" stroke-linecap="square" stroke-linejoin="bevel" transform="matrix(1.99938,0,0,1.99938,0.00079975,274.914)"
font-family="Ubuntu" font-size="11" font-weight="400" font-style="normal" 
>
</g>

<g fill="none" stroke="#000000" stroke-opacity="1" stroke-width="1" stroke-linecap="square" stroke-linejoin="bevel" transform="matrix(1.99938,0,0,1.99938,0.00079975,274.914)"
font-family="Ubuntu" font-size="11" font-weight="400" font-style="normal" 
>
</g>

<g fill="#000000" fill-opacity="1" stroke="#000000" stroke-opacity="1" stroke-width="1" stroke-linecap="square" stroke-linejoin="round" transform="matrix(1.99938,0,0,1.99938,0.00079975,274.914)"
font-family="Ubuntu" font-size="11" font-weight="400" font-style="normal" 
>
<path vector-effect="none" fill-rule="evenodd" d="M147.3,-74.685 L147.94,-71.1115 L157.51,-76.513 L146.66,-78.2585 L147.3,-74.685"/>
</g>

<g fill="none" stroke="#000000" stroke-opacity="1" stroke-width="1" stroke-linecap="square" stroke-linejoin="bevel" transform="matrix(1.99938,0,0,1.99938,0.00079975,274.914)"
font-family="Ubuntu" font-size="11" font-weight="400" font-style="normal" 
>
</g>

<g fill="none" stroke="#000000" stroke-opacity="1" stroke-width="1" stroke-linecap="square" stroke-linejoin="bevel" transform="matrix(1,0,0,1,0,0)"
font-family="Ubuntu" font-size="11" font-weight="400" font-style="normal" 
>
</g>
</g>
</svg>
